<?xml version="1.0" encoding="utf-8"?>
<!-- Generator: Adobe Illustrator 16.0.0, SVG Export Plug-In . SVG Version: 6.00 Build 0)  -->
<!DOCTYPE svg PUBLIC "-//W3C//DTD SVG 1.1//EN" "http://www.w3.org/Graphics/SVG/1.1/DTD/svg11.dtd">
<svg version="1.1" id="Layer_1" xmlns="http://www.w3.org/2000/svg" xmlns:xlink="http://www.w3.org/1999/xlink" x="0px" y="0px"
	 width="724.875px" height="780.333px" viewBox="318 9.167 724.875 780.333" enable-background="new 318 9.167 724.875 780.333"
	 xml:space="preserve">
<g id="Layer_1_1_">
</g>
<g id="Layer_2">
	<path id="Mitrovica" fill="#383535" stroke="#FFFFFF" stroke-width="2" d="M534.658,222.626c-0.348-1.043-1.291-1.368-2.173-1.636
		c-1.939-0.59-3.993-0.897-4-3.672c-0.002-0.69-1.005-0.924-1.627-1.252c-2.495-1.317-4.4-3.043-5.091-5.983
		c-0.805-3.432-2.522-6.321-5.355-8.619c-1.893-1.535-1.831-3.312-0.332-5.551c1.593-2.379,2.684-4.768,3.003-7.797
		c0.336-3.188,2.666-5.743,5.387-7.63c0.452-0.313,1.312-0.174,1.458-0.838c0.657-2.978,3.412-3.335,5.528-4.344
		c2.239-1.067,3.348-0.449,4.335,1.821c0.379,0.872,0.729,1.735,0.895,2.697c0.207,1.225,1.302,1.755,2.332,1.933
		c1.022,0.176,1.206-0.951,1.592-1.643c0.925-1.661,2.352-2.988,1.258-5.417c-0.48-1.068,0.811-3.095,2.672-3.515
		c1.544-0.349,2.178-1.223,2.112-2.775c-0.072-1.714,0.764-3.216,1.248-4.802c0.417-1.367,1.191-2.152,2.601-2.614
		c2.715-0.891,3.713-2.251,2.979-4.973c-0.517-1.914,0.322-2.114,1.584-2.765c3.206-1.656,6.558-1.491,9.928-1.059
		c1.221,0.157,1.916-0.874,3.151-0.933c0.42,2.252-0.084,4.419-0.411,6.61c-0.229,1.525,0.5,2.027,1.828,1.339
		c0.626-0.325,1.415-0.688,1.704-1.253c1.285-2.51,3.033-2.171,5.019-1.047c0.18,0.102,0.446,0.049,0.688,0.069
		c0.589-0.743,0.684-1.69,0.062-2.273c-2.505-2.348,0.281-4.124,0.762-6.012c0.306-1.204,2.207-0.823,3.435-0.181
		c1.133-1.646-0.464-3.31,0.547-4.956c0.611-0.995,0.925-1.816,2.178-1.84c0.237-0.004,0.479,0.013,0.715-0.01
		c1.686-0.163,3.977,0.633,4.537-1.716c0.49-2.058,1.375-4.491-0.953-6.204c-1.04-0.765-0.542-1.61-0.026-2.125
		c2.013-2.008,0.348-4.26,0.554-6.372c0.072-0.75-0.589-0.92-1.242-0.874c-1.402,0.099-2.143-0.961-2.932-1.799
		c-0.774-0.824-1.032-1.882-0.379-2.957c0.564-0.926,1.139-1.877,2.479-1.617c2.538,0.492,4.638-0.934,6.81-1.746
		c3.092-1.156,4.104-4.054,4.716-7.033c0.112-0.548,0.104-1.311-0.196-1.722c-1.322-1.81-2.655-3.439,0.128-5.23
		c0.594-0.382,0.127-1.57-0.28-2.33c-1.01-1.888-1.909-3.826-2.366-5.929c-0.374-1.721-1.919-2.044-3.169-2.553
		c-1.046-0.425-1.714-0.651-2.009-2.015c-0.468-2.164-2.567-2.893-4.423-3.671c-2.177-0.913-2.339-1.036-0.995-2.958
		c0.922-1.318,0.854-2.426,0.084-3.557c-1.02-1.494-0.805-3.556-2.86-4.652c-2.685-1.433-4.756-4.079-8.128-4.11
		c-1.144-0.011-2.245-0.242-2.959-0.986c-1.304-1.36-2.768-2.063-4.621-2.375c-1.68-0.283-2.646-3.371-1.333-4.377
		c1.529-1.172,0.955-2.314,0.849-3.747c-0.281-3.773-3.074-6.076-5.009-8.776c-2.309-3.22-2.604-3.008,0.345-5.721
		c1.393,1.506,2.866,2.737,5.145,2.925c1.161,0.096,2.036,0.143,2.924-0.59c1.052-0.867,2.349-1.087,3.637-1.353
		c0.761-0.157,1.227-0.493,2.051,0.391c0.982,1.055,2.666,0.824,3.974,0.032c1.538-0.931,2.903-0.988,4.82-0.745
		c4.142,0.525,8.415,0.028,12.119-2.433c0.182-0.121,0.499-0.337,0.473-0.429c-0.771-2.718,1.687-2.918,3.032-4.061
		c1.352-1.148,2.422-2.639,4.461-2.584c0.325,0.009,0.949-0.229,0.942-0.319c-0.206-3.021,4.094-3.278,3.833-6.266
		c-0.059-0.663,0.513-0.717,0.734-1.09c3.127-5.248,2.499-5.477,9.663-3.134c1.333,0.436,2.533,1.447,4.007,0.431
		c0.182-0.125,0.538-0.245,0.669-0.156c2.685,1.845,5.144,0.326,7.757-0.307c2.503-0.607,5.163,0.503,7.854-0.048
		c-0.125-1.076-0.257-1.997-0.338-2.923c-0.485-5.568,2.229-8.684,7.889-9.07c0.811-0.055,1.71,0.133,2.174-0.83
		c0.715,0,1.432,0,2.146,0c1.521,1.5,1.917,4.203,4.68,4.371c0.082,2.72,2.479,3.595,4.205,4.695
		c1.603,1.021,2.845,2.07,3.642,3.771c1.469,3.129,4.153,5.269,6.405,7.772c2.199,2.445,4.029,5.111,3.416,8.762
		c-0.295,1.758,0.443,3.241,2.033,4.219c0.504,0.31,1.008,0.656,1.418,1.077c0.404,0.417,0.785,0.977,0.31,1.556
		c-0.353,0.427-0.922,0.308-1.313,0.061c-2.674-1.69-6.055,0.167-8.701-1.748c-0.25-0.181-0.93,0.066-1.321,0.278
		c-1.777,0.96-3.613,0.697-5.476,0.399c-1.423-0.228-2.391,0.52-2.069,1.758c0.286,1.108,0.541,2.325,1.563,3.127
		c0.643,0.503,1.146,1.125,1.664,1.779c2.246,2.841,2.133,3.571-1.371,4.676c-1.104,0.348-2.215,0.743-3.44,0.818
		c-2.063,0.127-2.779,1.945-1.722,3.63c1.088,1.733,2.479,2.415,4.468,1.863c0.684-0.189,1.395-0.466,2.075-0.428
		c1.646,0.09,3.41,0.043,3.861,2.305c0.129,0.648,0.773,1.177,1.094,1.806c0.767,1.511,1.813,1.508,3.248,0.916
		c3.699-1.525,5.148-0.752,6.338,3.145c0.488,1.6,1.744,3.266,3.179,2.708c2.629-1.022,3.623,0.723,4.586,2.137
		c0.688,1.014,1.028,1.563,2.366,1.404c1.005-0.12,2.072,0.418,3.125,0.549c2.474,0.306,4.224,1.373,4.789,3.991
		c0.392,1.813,1.109,3.256,3.402,3.412c0.926,0.063,1.797,0.95,2.576,1.762c2.334,2.429,5.528,3.015,8.692,3.526
		c0.265,0.043,0.599-0.35,0.898-0.54c1.387-0.08,1.797,0.728,1.998,1.959c0.604,3.726,2.598,5.58,6.471,6.181
		c3.998,0.621,6.373,3.147,6.771,7.325c0.227,2.375-0.076,4.778,0.186,7.152c0.295,2.679-0.744,5.876,2.705,7.414
		c0.193,4.338,4.139,6.122,6.273,9.133c1.578,2.223,1.819,4.65,1.604,7.162c-0.178,2.06,0.463,3.244,2.389,4.203
		c5.818,2.898,9.166,7.688,11.482,13.823c2.385,6.317,4.297,12.852,7.484,18.889c1.58,2.988-0.111,6.29-0.342,9.414
		c-0.447,6.074-1.718,12.04-4.974,17.37c-0.521,0.853-0.559,1.803-0.563,2.767c-0.005,0.867-0.209,1.624-1.078,2.093
		c-0.861,0.465-2.529-0.056-2.486,1.479c0.045,1.62-0.234,3.415,0.945,4.818c3.869,4.604,4.68,10.349,5.791,15.918
		c1.078,5.39,2.346,10.773,2.473,16.318c0.039,1.735,1.543,1.908,2.683,2.465c7.084,3.459,11.09,9.072,11.952,16.938
		c0.164,1.489-0.008,2.845-1.647,3.009c-2.238,0.225-3.703,1.319-4.961,3.053c-1.068,1.475-2.84,1.68-4.482,1.939
		c-2.031,0.319-3.555,1.149-4.367,3.181c-0.588,1.472-1.86,2.399-3.098,3.378c-2.381,1.883-2.535,3.736-0.781,6.313
		c3.502,5.143,2.969,12.396-1.771,16.289c-2.697,2.214-0.451,4.412-0.943,6.539c-0.768,1.342-2.123,1.158-3.352,1.303
		c-1.871,0.05-2.021,1.255-1.863,2.721c0.232,2.125-0.758,3.293-2.816,3.865c-2.85,0.791-6.112,0.985-7.202,4.662
		c-0.214,0.719-1.386,0.831-2.136,1.185c-1.075,0.507-2.248,0.909-2.969,1.918c-3.076,4.311-6.922,6.646-12.432,7.661
		c-4.056,0.748-5.142-0.432-6.486-3.398c-1.338-2.947-3.219-5.55-6.207-7.164c-2.082-1.124-2.869-3.021-3.004-5.334
		c-0.096-1.635-0.799-2.135-2.266-0.905c-3.146,2.639-6.339,5.266-10.89,3.111c-0.434-0.206-1.063-0.044-1.274,0.394
		c-1.687,3.465-5.904,4.936-6.968,8.877c-0.063,0.229-0.161,0.451-0.276,0.658c-1.078,1.95-1.732,4.999-4.035,5.027
		c-2.434,0.028-4.641-2.536-5.24-4.722c-1.313-4.796-5.922-2.909-8.549-4.884c-0.742-0.557-2.076,0.637-2.563,1.543
		c-1.486,2.763-4.056,3.992-6.766,4.897c-2.168,0.724-2.714,1.98-2.3,4.056c0.327,1.638,0.619,3.276,1.243,4.834
		c1.645,4.101,1.316,4.859-2.878,6.638c-0.328,0.14-0.67,0.247-1.011,0.358c-0.463,0.155-0.938,0.254-1.42,0.325
		c-0.61,0.099-1.223,0.204-1.842,0.243c-0.453-0.032-0.817-0.246-1.131-0.551c-0.454-0.4-0.926-0.366-1.412-0.027
		c-1.99,1.96-4.332,2.914-7.139,2.556c-1.995-0.255-3.21,0.233-2.085,2.491c1.156,2.32,0.531,4.174-0.752,6.309
		c-1.867,3.105-2.548,6.477-1.528,10.259c0.896,3.325,1.239,6.923-2.218,9.417c-1.34,0.854-2.855,1.22-4.39,1.433
		c-3.289,0.458-5.178-0.794-6.069-4.054c-0.538-1.965-1.169-3.862-2.204-5.637c-1.761-3.02-3.958-4.673-7.821-4.268
		c-4.818,0.505-6.958-1.839-7.131-6.718c-0.118-3.291,0.45-6.358,2.116-9.27c1.878-3.283,0.047-11.413-2.863-13.772
		c-1.503-1.219-1.977-0.25-2.607,0.941c-2.16,4.07-6.833,6.314-11.28,5.422c-2.17-0.436-4.199-1.385-5.282-3.361
		c-2.049-3.738-4.588-7.299-5.115-11.701c-0.154-1.297-0.754-2.111-1.863-2.825c-3.375-2.169-5.266-9.363-3.475-12.754
		c0.838-1.587,2.081-1.362,3.344-0.708c2.714,1.407,3.82,0.358,3.726-2.424c-0.061-1.787,1.218-2.752,2.149-3.96
		c2.964-3.843,2.888-4.212,0.587-8.399c-1.944-3.539-3.274-7.396-5.532-10.788c-0.708-1.063-0.318-2.185,0.688-2.814
		c4.748-2.974,4.786-7.804,4.365-12.369c-0.35-3.803-0.284-7.312,1.271-10.806c1.034-2.326,1.227-4.822,1.167-7.357
		c-0.043-1.807-0.639-2.486-2.615-2.291c-4.156,0.41-5.147-0.54-6.017-4.666c-0.728-3.457-0.86-7.157-3.675-9.859
		c-0.327-0.314-0.213,0.131-0.173-0.286c0.601-6.205-5.051-5.867-8.363-7.743c-1.916-1.086-4.332-1.54-6.063-2.945
		c-3.648-2.962-7.495-2.187-10.516,0.131C540.655,225.248,537.83,224.054,534.658,222.626z"/>
	<path id="Peja" fill="#383535" stroke="#FFFFFF" stroke-width="2" d="M534.658,222.626c0.476,0.021,0.952,0.07,1.426,0.059
		c1.602-0.037,2.973,0.905,4.429,1.134c1.635,0.257,1.938-2.18,3.48-2.67c1.797-0.572,3.713-0.787,5.307-2
		c0.72-0.547,1.604-0.103,2.316,0.398c3.333,2.343,6.947,4.049,10.845,5.295c2.2,0.703,3.858,2.688,6.403,2.88
		c0.938,0.071,0.868,1.539,1.652,2.188c0.581,0.48,0.006,1.333-0.555,1.792c-1.183,0.971-0.154,1.624,0.455,1.839
		c1.818,0.644,1.961,2.013,2.228,3.623c0.347,2.104,0.857,4.166,1.092,6.312c0.3,2.755,0.924,4.538,4.955,3.581
		c1.132-0.268,2.377,0.094,3.414-1.006c1.152,5.468,0.394,10.262-2.026,14.824c-1.023,1.931-0.583,3.985-0.066,5.857
		c1.179,4.278-0.602,8.178-1.256,12.21c-0.208,1.284-1.878,1.298-2.854,1.928c-2.091,1.351-2.133,1.563-0.151,3.151
		c0.25,0.201,0.827,0.109,0.755,0.584c-0.481,3.173,2.783,4.877,3.017,7.828c0.1,1.268,1.124,2.342,2.213,3.133
		c1.445,1.051,1.499,2.321,0.635,3.738c-0.804,1.318-1.548,2.688-2.488,3.904c-1.129,1.461-2.911,2.246-1.723,4.931
		c0.828,1.87-2.439,3.633-4.385,2.49c-0.988-0.58-1.888-1.94-3.118-1.134c-1.19,0.78-0.246,2.219-0.302,3.352
		c-0.065,1.293-0.05,2.595,0.168,3.91c0.464,2.82,0.934,5.495,4.674,5.482c0.842-0.002,0.957,0.723,0.849,1.26
		c-0.733,3.643,1.481,6.311,2.964,9.221c0.217,0.425,0.477,0.827,0.688,1.253c2.656,5.342,5.477,6.694,11.112,5.362
		c2.63-0.621,4.563-1.998,5.242-4.742c0.172-0.693,0.228-1.426,0.715-1.99c0.851-0.982,2.454-1.07,2.937,0.051
		c0.55,1.279,1.68,1.967,2.392,3.061c0.864,1.326,1.802,2.44,1.237,4.209c-0.323,1.014-0.024,2.018,0.631,3.016
		c1.086,1.652,0.896,3.383-0.424,4.934c-2.798,3.287-2.624,7.305-2.438,11.188c0.122,2.582,2.215,4.014,4.896,4.057
		c0.238,0.004,0.477-0.008,0.713,0.014c2.191,0.198,4.886-1.215,6.483,0.639c2.357,2.734,4.661,5.705,5.155,9.547
		c0.415,3.221,1.781,4.318,4.893,3.764c1.512-0.27,2.972-0.834,4.456-1.266c0.834-0.337,1.334,0.079,1.717,0.76
		c0.307,2.613-1.266,4.221-3.111,5.623c-2.833,2.152-5.718,4.129-6.963,7.819c-0.649,1.924-2.705,3.021-4.451,3.988
		c-2.396,1.328-3.492-0.543-4.268-2.353c-1.583-3.694-1.284-3.233-5.025-1.357c-5.322,2.669-9.086,7.748-15.105,9.28
		c-1.696,0.431-3.081,1.783-3.762,3.593c-0.252,0.672-0.563,1.396-1.11,1.816c-3.811,2.914-4.202,7.024-3.942,11.301
		c0.164,2.693-1.188,3.854-3.57,4.484c-4.057,1.069-8.586,2.207-12.277,1.465c-4.853-0.976-9.815,0.75-14.417-1.332
		c-0.201-0.084-0.396-0.187-0.59-0.289c-0.384-0.209-0.733-0.488-1.183-0.56c0.077,0.355,0.399,0.65,0.262,1.063
		c-0.178,0.473-0.521,0.771-0.973,0.963c-1.177,0.715-2.72-0.752-3.778,0.652c-0.148,0.282-0.324,0.539-0.52,0.787
		c-0.326,0.377-0.709,0.676-1.14,0.92c-4.991,1.623-6.043,1.018-8.627-3.22c-1.876-3.075-3.008-6.776-5.986-9.014
		c-2.381-1.785-4.742-3.813-7.778-4.496c-1.262-0.283-2.33-0.893-2.892-1.92c-2.215-4.043-5.993-3.738-9.682-3.609
		c-1.658,0.06-3.324,0.349-4.908,0.918c-1.981,0.714-3.906,0.416-5.959,0.109c-8.063-1.201-16.106-2.496-23.413,3.115
		c-3.22,2.473-8.597,1.563-11.516-1.295c-2.005-1.965-1.65-4.025,0.143-5.972c1.272-1.381,0.756-2.068-0.89-2.323
		c-1.599-0.249-3.59,0.293-4.523-1.483c-1.29-2.452-2.173-5.462-1.405-7.895c1.21-3.829-1.057-5.665-3.378-6.862
		c-2.387-1.232-4.609-2.223-5.941-4.697c-0.52-0.963-1.129-0.518-1.402,0.374c-0.11,0.683-0.231,1.356-0.521,1.987
		c-2.258,2.469-5.457,3.735-7.736,6.264c-1.279,1.418-3.176,0.374-4.608-0.523c-3.021-1.892-5.983-3.807-9.518-4.752
		c-1.399-0.375-2.684-0.685-4.145-0.646c-4.345,0.111-8.499-1.096-12.63-2.236c-1.89-0.521-2.979-2.098-2.988-4.049
		c-0.013-3.193-1.365-5.111-4.491-5.994c-2.272-0.642-3.339-2.174-2.395-4.658c1.107-2.912-0.262-6.639,2.91-8.875
		c0.377-0.219,0.746-0.53,1.056-0.34c-1.563-0.366-3.216-0.135-4.805,0.688c-2.593,1.039-5.113,0.998-7.545-0.477
		c-0.948-0.575-1.978-0.805-3.085-0.668c-3.293,0.406-6.498-0.286-9.432-1.549c-3.152-1.357-6.101-1.85-9.279-0.398
		c-0.639,0.291-1.382,0.407-2.04-0.091c-0.803,0.092-1.308-0.411-1.857-0.88c-1.625-1.389-3.123-3.025-4.959-4.045
		c-2.313-1.282-3.445-3.136-3.946-5.545c-0.362-1.748-1.196-2.662-3.147-2.463c-2.014,0.205-4.088,0.301-5.244-1.973
		c-0.131-0.259-0.633-0.563-0.869-0.5c-3.109,0.843-4.104-1.659-5.347-3.504c-1.21-1.797-2.599-3.064-4.834-3.078
		c-1.384-0.008-1.925-0.793-1.984-2.002c-0.086-1.76-0.489-3.536,0.167-5.274c-0.521-0.615-1.077-0.338-1.632-0.058
		c-1.301,0.049-2.602,0.105-3.904,0.143c-0.511,0.014-0.976-0.186-1.024-0.73c-0.058-0.621,0.153-1.297,0.904-1.249
		c2.577,0.165,3.483-2.073,5.148-3.344c-1.973-2.101-5.489-1.897-6.709-4.844c-0.689-2.075,0.61-4.397-0.794-6.384
		c0-0.478,0-0.955,0-1.432c2.846-1.537,4.271-4.085,3.789-7.35c-0.222-1.503,0.896-2.729,0.51-4.203
		c-0.078-0.297,0.284-0.588,0.669-0.691c2.289-0.614,3.677-2.477,5.407-3.877c0.869-0.703,1.679-1.647,3.126-1.207
		c1.094,0.334,1.513-0.967,2.336-1.387c1.964-1.002,3.658-1.646,5.869-0.035c2.676,1.951,5.93,1.002,8.932,0.502
		c1.172-0.195,2.365-0.738,3.494-0.357c1.426,0.479,2.799,1.125,2.802,3.124c0.002,1.616,1.082,2.771,2.313,3.768
		c0.469,0.381,0.755,0.685,1.497,0.534c3.47-0.703,6.374,0.904,9.253,2.495c0.519,0.286,0.96,0.712,1.479,0.999
		c2.226,1.23,2.896,0.894,2.986-1.674c0.063-1.738,0.24-3.312,1.854-4.376c0.804-0.53,1.519-0.745,2.151,0.143
		c1.729,2.423,5.244,2.944,6.377,6.016c0.091,0.246,0.559,0.43,0.881,0.502c2.758,0.613,4.318,2.651,5.895,5.21
		c2.186-2.979,4.753-3.066,7.391-1.079c1.12,0.845,1.457,0.158,2.241-0.478c1.832-1.488,3.749-3.025,6.441-2.26
		c0.555,0.158,1.457,0.158,1.628-0.373c0.657-2.035,2.493-2.214,4.014-2.373c2.408-0.254,2.547-2.502,3.857-3.68
		c-0.943-2.95,1.779-4.132,3.184-5.543c1.754-1.764,1.88-3.272,1.32-5.371c-0.791-2.963-1.603-5.946-0.891-9.082
		c0.16-0.703-0.055-1.311-0.858-1.741c-0.817-0.438-1.574-1.1-2.166-1.82c-1.65-2.009-0.913-3.533,1.651-4.097
		c2.509-0.551,5.101-1.596,6.691-3.446c1.24-1.442,2.729-2.091,4.114-2.301c2.043-0.31,2.833-1.031,3.563-2.965
		c1.426-3.78,1.007-3.374,4.495-3.012c0.586,0.062,1.199,0.026,1.782-0.07c1.475-0.243,2.297,0.194,2.261,1.835
		c-0.021,0.932-0.135,2.138,1.108,2.311c1.055,0.146,2.441-0.211,2.771-1.222c0.606-1.866,2.445-1.672,3.587-2.585
		c0.584-0.467,1.675-0.641,2.355,0c2.797,2.628,6.248,0.936,9.359,1.397c0.778,0.115,1.926-0.94,2.605-1.718
		c2.667-3.042,6.476-3.744,10.024-4.685c1.544-0.409,2.961-1.287,4.654-1.352c2.006-0.075,3.798,0.035,4.958,1.925
		c1.066,1.738,2.845,2.782,4.156,4.319c1.691,1.983,4.083,1.647,5.926-0.388c2.075-2.293,4.006-4.717,5.969-7.109
		c0.912-1.113,1.851-2.18,3.109-2.92c2.685-1.578,5.25-3.262,6.911-6.046c0.624-1.045,1.728-1.603,2.988-1.765
		c2.79-0.36,5.265-1.478,7.351-3.344c2.688-2.406,6.023-3.006,9.391-3.626c2.238-0.413,2.291-0.676,1.063-2.84
		C534.566,223.147,534.656,222.862,534.658,222.626z"/>
	<path id="Gjilani" fill="#383535" stroke="#FFFFFF" stroke-width="2" d="M924.477,307.614c3.037,0.524,5.668,1.993,8.211,3.614
		c2.3,1.465,5.054,1.142,7.73,2.31c0.041-2.754,1.457-4.021,3.941-4.183c0.813-0.053,1.188-0.676,1.498-1.358
		c0.405-0.897,1.139-1.487,1.938-2.024c1.646,2.662,3.703,3.823,7.078,4.742c1.279,0.349,2.186,1.029,3.723,0.388
		c1.101-0.46,2.439,0.36,2.72,2.07c0.407,2.487-0.16,4.724-1.269,6.893c-0.377,0.739-0.895,1.431-1.141,2.209
		c-0.347,1.103-0.047,2.002,1.356,1.711c2.138-0.444,3.521,0.358,4.871,2.042c1.955,2.443,7.443,2.881,10.379,1.008
		c0.613-0.391,1.422-1.18,1.729-0.488c0.598,1.346,2.604,0.422,2.828,2.165c0.352,2.776,1.842,5.214,2.274,8.08
		c0.33,2.167,2.666,4.054,4.189,6.003c0.574,0.734,1.371,1.295,2.111,1.976c1.086-0.37,1.084-1.674,2.141-2.173
		c2.352-1.109,2.996-3.266,2.789-5.762c-0.18-2.168,0.494-3.24,2.59-4.098c3.715-1.518,7.402-2.33,11.547-1.305
		c2.25,0.557,4.963,0.08,6.91-1.714c0.686-0.631,1.361-1.199,2.146-0.833c2.184,1.016,3.629-0.195,5.122-1.427
		c0.459-0.378,0.892-0.802,1.39-1.116c1.93-1.22,2.293-0.961,2.936,1.301c0.644,2.263,1.642,4.424,2.295,6.686
		c0.361,1.251,1.388,1.618,2.25,2.126c2.191,1.288,3.187,3.058,2.896,5.604c-0.09,0.777-0.56,1.9,0.338,2.314
		c2.869,1.323,3.641,4.579,6.047,6.289c0,0.955,0,1.91,0,2.865c-0.932,0.273-1.225,1.487-2.311,1.547
		c-0.886,0.047-1.218,0.602-1.24,1.424c-0.006,0.236-0.056,0.475-0.121,0.703c-0.521,1.795-1.736,3.14-3.139,4.225
		c-1.843,1.426-2.761-1.102-4.304-1.219c-1.418,0.765-1.069,2.609-2.412,3.723c-1.362,1.131-0.967,3.344,0.404,4.796
		c0.979,1.036,0.867,1.757-0.09,2.69c-1.063,1.038-1.502,2.334-1.443,3.887c0.046,1.166-0.661,1.764-1.881,1.142
		c-1.256-0.642-2.004-0.416-2.213,1.101c-0.065,0.486-0.61,0.601-1.031,0.834c-2.067,1.143-2.688,2.828-1.272,4.494
		c2.061,2.424,2.973,5.383,4.146,8.168c0.939,2.232,0.992,4.855,0.191,7.306c-0.221,0.678-0.75,1.397-0.273,2.018
		c1.64,2.139,0.043,3.391-1.065,4.955c-1.478,2.08-3.951,2.533-5.836,3.938c-0.972,0.724-2.256-0.084-3.357-0.596
		c-2.223-1.035-4.34-0.842-6.235,0.813c-0.271,0.234-0.757,0.482-0.752,0.722c0.028,2.459-1.802,3.248-3.826,3.953
		c0.651,1.45,1.862,2.442,1.396,4.09c-0.281,0.99,0.722,1.635,1.349,2.36c1.231,1.427,2.862,2.548,3.504,4.441
		c0.649,1.92-0.254,2.982-2.24,2.619c-0.117-0.021-0.236-0.033-0.354-0.062c-4.366-1.021-4.829-0.653-4.348,3.949
		c0.158,1.504-0.123,2.301-1.602,3.041c-2.091,1.049-4.279,1.916-6.168,3.469c-1.574,1.291-1.97,2.416-1.089,4.125
		c0.25,0.486,0.496,0.976,0.683,1.339c-0.687,0.733-1.279,0.577-1.871,0.557c-0.93-0.033-1.857-0.477-2.795,0.057
		c-1.254,0.713-0.004,1.771-0.389,2.56c-0.615,1.262-1.144,2.543-2.521,3.321c-4.035,2.289-7.471,5.246-9.996,9.222
		c-0.738,1.164-2.844,1.473-2.021,3.592c0.522,1.344,1.061,2.613,2.09,3.684c0.994,1.029,1.82,2.179,1.447,3.816
		c-0.279,1.225,0.803,1.926,1.411,2.758c1.037,1.42,1.693,2.883,0.898,4.601c-0.555,1.196,0.168,1.702,0.961,2.319
		c3.221,2.508,3.293,4.39,0.299,7.164c-1.041,0.965-2.771,1.492-1.811,3.558c0.242,0.52-0.592,0.969-1.012,1.36
		c-2.529,2.355-3.939,5.369-4.869,8.594c-0.465,1.611-1.345,2.462-2.91,2.681c-1.781,0.248-3.633,0.604-4.705-1.459
		c-0.451-0.869-1.121-1.527-1.906-2.088c-0.483-0.347-0.975-0.791-1.592-0.406c-1.881,1.172-4.248,1.059-6.078,2.414
		c-1.805,1.336-2.014,1.932-0.904,3.994c0.511,0.95,1.306,2.026-0.008,2.78c-0.977,0.563-1.77,2.086-3.477,0.347
		c-1.656-1.689-4.109-1.111-6.154,0.807c-0.856,0.805-1.488,0.248-1.627-0.297c-0.471-1.85-2.432-2.473-2.846-4.152
		c-1.943,0.457-2.074,2.424-3.426,3.17c-0.201,0.111-0.343,0.736-0.22,0.968c2.101,3.936-0.938,6.952-2.002,10.233
		c-0.483,1.494-0.856,2.883-0.858,4.412c0,0.236,0.047,0.473,0.071,0.709c0.052,0.51,3.216,9.738,3.57,9.855
		c1.83,0.598,1.139,2.412,1.766,3.578c0.986,1.84,1.359,2.252,3.101,1.293c1.102-0.605,2.008-1.47,3.344-1.728
		c1.945-0.375,2.848-0.024,3.682,1.65c0.892,1.787,0.218,3.537-0.217,5.184c-0.289,1.101-0.307,1.59,0.619,2.324
		c2.334,1.852,4.031,4.383,6.432,6.188c0.793,0.597,0.982,1.253,0.793,2.423c-0.274,1.7,0.4,3.465,1.353,4.987
		c1.477,2.359,1.424,4.349-0.787,5.615c-1.525,0.873-2.512,2.047-3.596,3.273c-1.416,1.606-3.025,2.387-5.367,1.819
		c-1.756-0.426-3.594-0.133-5.439-0.916c-1.59-0.674-3.18,0.666-4.258,1.998c-0.735,0.912-1.391,1.959-1.797,3.051
		c-0.606,1.625-1.772,1.563-3.135,1.498c-1.779-0.084-1.693-1.346-1.748-2.526c-0.123-2.67-1.205-5.261-0.67-7.98
		c0.102-0.512,0.022-1.205-0.398-1.223c-3.078-0.123-1.67-4.691-4.326-4.617c-2.985,0.082-5.258-2.387-8.342-1.781
		c-0.787,0.154-1.858-0.926-2.742-1.524c-2.217-1.502-4.272-2.109-6.897-0.482c-1.572,0.975-3.781,1.668-5.619-0.09
		c-0.713-0.684-1.338-0.291-1.836,0.254c-1.281,1.398-2.348,2.912-1.988,4.975c0.353,2.021,0.283,3.843-2.057,4.688
		c-0.826,0.299-0.998,1.02-0.857,1.754c0.418,2.187,0.373,4.531,2.162,6.269c0.504,0.487,0.924,1.102,1.26,1.723
		c1.4,2.592,0.468,4.521-2.397,5.125c-0.521,0.109-0.969,0.111-1.24-0.354c-1.197-2.063-3.395-3.229-4.651-5.215
		c-0.587-0.928-1.201-0.942-2.253-1.061c-1.7-0.188-3.323-1.189-4.942-1.931c-0.688-0.313-1.26-0.516-1.996-0.112
		c-1.539,0.844-3.064,1.565-4.982,1.373c-1.018-0.103-1.711,0.821-1.012,2.01c0.771,1.311-0.537,1.582-1.088,2.231
		c-3.391-0.75-6.031-2.729-8.355-5.18c-1.301-1.373-2.541-2.795-4.149-3.826c-2.801,3.863-3.638,3.986-7.254,0.957
		c-1.779-1.487-3.824-1.815-6.027-1.637c-5.305,0.428-9.354-2.064-11.74-6.961c-1.707-3.504-3.438-7.059-7.383-8.727
		c-1.385-0.584-0.826-2.101-1.311-3.082c-3.57-7.248,2.188-11.461,5.569-16.099c2.466-3.375,3.056-2.944,3.345-7.836
		c-1.466,0.287-1.896,1.729-2.873,2.531c-1.98,1.625-4.039,2.406-6.597,1.401c-2.387-0.938-3.28-2.524-2.762-5.045
		c0.256-1.235-0.668-1.963-1.592-2.565c-1.904-1.244-2.342-2.883-1.412-4.938c1.006-2.223,1.135-4.594,1.24-6.989
		c0.086-1.97,0.75-3.181,3.217-3.334c3.059-0.193,5.82-1.867,8.674-2.97c2.473-0.955,4.711-1.336,7.195-0.065
		c1.326,0.676,3.063,1.358,4.295-0.117c1.283-1.543,0.957-3.35,0.012-5.023c-0.469-0.832-0.99-1.646-1.604-2.364
		c-2.189-2.554-2.289-5.388-1.246-8.392c0.862-2.483,1.311-5.057,1.856-7.617c0.439-2.063,0.117-3.372-1.567-4.598
		c-1.629-1.184-2.951-2.77-4.781-3.721c-0.969-0.506-1.988-1.242-2.047-2.344c-0.207-3.808-2.791-6.496-4.301-9.687
		c0.325-3.529-0.339-7.178,1.051-10.574c0.57-1.395-0.533-1.908-1.002-2.78c-1.449-2.703-0.674-4.089,2.354-4.027
		c2.031,0.041,4.086-0.287,6.068-0.062c3.115,0.355,4.486-1.276,5.721-3.729c0.937-1.861,1.101-3.389-0.508-4.812
		c-3.518-3.11-4.369-6.977-3.164-11.354c0.531-1.926,0.287-2.758-1.881-3.603c-6.953-2.706-7.99-7.678-3.104-13.401
		c1.077-1.262,2.438-2.287,2.922-3.992c0.164-0.574,0.553-1.313,1.203-1.057c2.366,0.93,3.067-0.101,3.43-2.305
		c0.188-1.161,1.567-0.8,2.477-0.669c3.744,0.537,7.105,2.524,10.986,2.752c1.617,0.097,3.188,1.55,3.551,3.218
		c0.791,3.631,2.527,7.18,0.545,11.1c-1.694,3.348,0.365,6.572,1.539,9.557c0.928,2.365,4.275,2.17,6.314-0.205
		c2.172-2.53,4.188-5.198,6.338-7.752c2.072-2.461,3.123-2.584,5.037-0.055c2.781,3.676,7.059,6.062,8.801,10.672
		c0.65,1.721,1.359,3.248,0.922,5.109c-0.303,1.281-0.422,2.623-0.252,3.912c0.881,6.674-2.951,10.686-7.836,14.141
		c-0.775,0.547-2.459,0.711-1.469,2.193c0.723,1.084,2.033,0.662,2.903,0.024c1.869-1.369,3.423-1.432,5.49-0.067
		c2.267,1.491,12.232-0.843,13.896-2.865c0.897-1.092,0.744-2.484,0.944-3.756c0.328-2.074,1.41-3.328,3.558-3.222
		c2.301,0.115,4.44-0.741,6.959,0.152c3.733,1.326,9.145-4.039,8.949-8.094c-0.212-4.424-0.578-8.729-2.568-12.849
		c-1.109-2.295,0.135-4.93,0.164-7.418c0.014-1.137,1.197-1.395,2.158-1.483c1.938-0.185,2.348-1.146,1.162-2.547
		c-1.158-1.369-1.519-3.252-2.99-4.381c-1.607-0.857-1.441-2.688-2.222-4c-2.141-4.093-1.432-7.751,2.082-10.657
		c0.552-0.455,1.226-0.821,1.478-1.504c1.063-2.86,3.225-3.174,5.432-1.857c2.797,1.669,5.861,2.119,8.904,2.801
		c0.479,0.107,1.106,0.984,1.342,0.349c0.262-0.708-0.871-1.132-1.246-1.791c-1.074-1.783,0.01-3.693-0.297-5.572
		c-0.225-1.372,0.846-1.642,4.686-1.464c-3.145-5.284-3.098-11.592-5.481-17.125c-0.512-1.186-0.615-2.548-1.451-3.606
		c-1.758-2.225-3.799-2.118-5.328,0.285c-0.252,0.396-0.334,1.021-0.729,1.197c-3.033,1.355-3.406,4.251-4.129,6.958
		c-0.716,0.496-1.338,0.133-1.97-0.193c-3.692-2.281-4.34-6.637-6.641-9.88c-1.586-2.237-1.93-5.334-5.834-5.272
		c-1.844,0.029-3.719-5.623-2.322-7.34c1.709-2.098,0.638-2.885-0.975-3.805c-3.984-2.271-6.947-6.1-11.83-7.103
		c-2.244-0.46-3.182-2.847-2.672-5.225c0.358-1.673-0.224-2.444-1.744-2.874c-1.402-0.396-2.629-1.05-3.373-2.439
		c-1.65-3.081-0.746-5.012,2.672-5.563c0.236-0.039,0.521,0.035,0.707-0.068c3.742-2.043,6.943-2.053,9.014,2.335
		c3.627,0.537,7.091,1.954,10.793,2.043c0.962,0.023,1.48-0.715,1.699-1.583c0.611-2.416,1.574-4.832,2.584-6.963
		C919.422,312.9,921.578,309.855,924.477,307.614z"/>
	<path id="Prizereni" fill="#383535" stroke="#FFFFFF" stroke-width="2" d="M596.234,784.646c-0.736,0.004-1.475,0.01-2.21,0.016
		c-0.236-0.057-0.473-0.113-0.708-0.172c-0.807-0.629-0.932-1.604-1.274-2.476c-2.169-5.51-8.926-6.737-12.936-2.35
		c-1.49,1.631-2.456,3.824-4.852,4.471c-0.804,0.185-1.689-0.194-2.44,0.357c-0.27,0.045-0.538,0.088-0.808,0.133
		c-0.999,0.023-1.998,0.045-2.997,0.066c-3.339-2.531-6.33-5.392-8.533-9c-0.308-0.505-0.908-0.951-0.967-1.472
		c-0.71-6.287-4.879-11.26-6.471-17.198c-0.302-1.128-1.109-2.113-1.025-3.634c3.325,0.203,5.029-1.444,6.126-4.539
		c0.611-1.721,2.377-3.362,4.88-2.442c0.578,0.213,1.433,0.289,1.61-0.285c0.866-2.795,4.199-3.33,5.218-6.135
		c1.155-3.179,1.644-6.424,2.055-9.703c0.221-1.76,0.16-3.582,0.004-5.355c-0.188-2.129-0.495-4.313-2.428-5.707
		c-2.738-1.971-3.464-4.92-3.974-7.971c-0.683-4.092-1.118-8.521-3.151-11.92c-2.267-3.793-1.814-7.635-2.331-11.465
		c-0.235-1.748-0.527-3.135-1.829-4.394c-1.706-1.647-3.22-3.495-4.81-5.264c-0.317-0.354-0.534-0.916-0.921-1.07
		c-4.188-1.666-4.484-6.307-7.053-9.221c-1.012-1.146-0.112-3.229-1.645-4.422c-0.469-0.367,0.137-1.135,0.416-1.604
		c1.149-1.933,2.282-3.888,3.62-5.687c0.728-0.977,1.147-1.533,0.076-2.59c-2.563-2.529-2.135-5.412-0.185-7.967
		c1.74-2.281,1.137-4.31,0.256-6.58c-0.78-2.008-1.892-3.826-3.033-5.605c-0.725-1.131-1.1-2.035-0.296-3.229
		c0.837-1.244,0.151-2.017-0.717-3.035c-1.22-1.434-2.875-2.51-3.645-4.346c-0.468-1.119-1.795-2.078-0.339-3.384
		c0.154-0.139,0.245-0.627,0.229-0.635c-2.188-0.932-1.233-3.377-2.386-4.877c-2.274-2.957-3.485-6.455-4.3-10.076
		c-0.546-2.432-1.03-4.877-1.55-7.313c-0.474-2.219-1.068-4.354-2.72-6.09c-0.71-0.746-1.298-1.773-1.53-2.769
		c-0.267-1.147-0.822-1.391-1.861-1.699c-2.102-0.62-3.754-1.748-3.97-4.362c-0.342-4.144-3.601-6.359-6.364-8.84
		c-0.961-0.861-2.311-1.271-2.97-2.5c-0.427-0.974,0.038-1.806,0.847-2.019c3.283-0.863,4.718-3.738,6.768-5.949
		c0.544-0.395,1.143-0.688,1.77-0.926c1.304-0.504,2.771-0.129,4.048-0.754c0.206-0.188,0.412-0.375,0.596-0.584
		c0.313-0.479,0.47-1.025,0.665-1.562c0.116-0.286,0.269-0.549,0.45-0.797c0.294-0.383,0.635-0.713,1.009-1.014
		c1.744-1.244,3.718-2.047,5.65-2.928c1.31-0.596,2.484-1.363,3.25-2.635c1.25-2.076,2.998-3.166,5.509-3.232
		c2.449-0.066,3.476-1.297,2.305-3.75c-0.585-1.223-0.779-2.473-0.08-3.736c0.237-0.264,0.524-0.448,0.854-0.578
		c0.512-0.141,1.023-0.143,1.535-0.018c1.03,0.131,1.882,1.752,1.976,1.604c1.472-2.377,4.839-1.436,6.284-3.68
		c0.449-0.695,0.82-1.438,1.525-1.924c0.699-0.428,1.489-0.666,2.2-1.072c0.886-0.494,1.8-0.852,2.841-0.555
		c0.471,0.162,0.854,0.455,1.18,0.824c0.541,0.75,1.045,1.524,1.472,2.346c0.093,0.281,0.125,0.572,0.114,0.865
		c-0.091,0.697-0.14,1.391,0.388,1.973c0.987,0.982,2.163,1.705,3.303,2.467c0.95,0.554,2.053,0.408,3.059,0.662
		c1.913-0.067,0.489-1.629,1.034-2.416c0.979-1.414,1.244-3.363,3.301-3.842c0.686-0.057,1.359,0.254,2.048,0.082
		c0.213-0.129,0.411-0.273,0.578-0.459c0.278-0.453,0.412-0.967,0.654-1.432c0.222-0.369,0.508-0.681,0.824-0.966
		c0.567-0.483,0.929-1.118,1.281-1.766c1.945-2.221,4.684-3.83,4.84-7.354c0.043-0.984,1.551-1.648,2.517-2.312
		c0.393-0.266,0.798-0.512,1.197-0.768c0.387-0.269,0.794-0.494,1.26-0.595c0.638-0.02,1.186,0.271,1.744,0.517
		c1.224,0.549,2.726,0.323,3.789,1.334c0.448,0.43,0.748,0.967,1.085,1.479c0.188,0.252,0.352,0.519,0.507,0.789
		c0.505,0.881,0.574,1.818,0.373,2.795c-0.584,2.963-1.064,5.886,2.542,7.42c0.499,0.213,0.902,0.101,1.283-0.231
		c0.395-0.392,0.842-0.711,1.291-1.021c0.185-0.174,0.37-0.354,0.534-0.547c0.194-0.338,0.333-0.697,0.444-1.072
		c0.072-0.266,0.17-0.52,0.278-0.772c0.229-0.515,0.48-1.015,0.761-1.498c0.453-0.738,0.719-1.482,0.08-2.267
		c-0.677-0.715-1.225-1.491-1.347-2.497c-0.771-3.984,0.4-7.003,4.225-8.822c2.049-0.978,2.988-2.654,2.553-4.972
		c-0.203-1.079-0.199-2.133,0.363-3.12c0.219-0.457,0.441-0.912,0.622-1.388c0.147-0.489,0.292-0.979,0.425-1.471
		c0.438-2.596,0.426-5.186-0.062-7.771c-0.147-0.68-0.166-1.362-0.051-2.047c0.313-1.1,0.432-2.203,0.059-3.317
		c-0.43-1.732,0.767-3.121,1.188-4.638c-1.188-0.69-1.913,0.328-2.804,0.363c-1.066,0.176-2.031-0.041-2.875-0.731
		c-1.146-0.986-0.981-2.277-0.825-3.564c0.021-0.547,0.009-1.092-0.238-1.604c-0.17-0.22-0.348-0.425-0.559-0.603
		c-0.542-0.365-1.105-0.252-1.667-0.104c-0.55,0.2-1.079,0.446-1.623,0.657c-0.567,0.195-1.147,0.246-1.74,0.156
		c-0.291-0.049-0.575-0.131-0.854-0.227c-0.699-0.25-1.449-0.326-2.146-0.601c-0.282-0.149-0.489-0.371-0.629-0.658
		c-0.063-0.311-0.063-0.622-0.016-0.936c0.3-2.182,1.502-4.049,2.12-6.115c0.112-0.244,0.246-0.483,0.375-0.717
		c0.133-0.338,0.202-0.688,0.065-1.045c-0.213-0.309-0.497-0.529-0.831-0.691c-0.659-0.252-1.359-0.243-2.04-0.36
		c-0.303-0.056-0.59-0.15-0.873-0.271c-0.42-0.209-0.805-0.471-1.186-0.742c-1.849-1.223-3.507-2.651-4.811-4.463
		c-0.429-0.78-0.488-1.737-1.157-2.407c-0.223-0.214-0.423-0.441-0.622-0.675c-0.201-0.244-0.366-0.51-0.505-0.793
		c-0.122-0.297-0.203-0.604-0.258-0.918c-0.104-0.799-0.095-1.596,0.051-2.389c0.134-0.631,0.43-1.187,0.813-1.697
		c0.181-0.246,0.385-0.477,0.595-0.699c0.1-0.112,0.207-0.221,0.304-0.334c0.181-0.231,0.365-0.467,0.532-0.709
		c0.063-0.137,0.136-0.264,0.199-0.396c0.369-1.178,0.364-2.344-0.088-3.5c-0.167-0.26-0.323-0.523-0.492-0.783
		c-1.25-1.389-1.225-3.225-1.729-4.879c-0.101-0.309-0.164-0.625-0.215-0.945c-0.25-1.207,0.246-2.668-1.215-3.44
		c-1.813-1.172-3.333-1.222-4.707,0.793c-0.842,1.233-2.204,2.004-3.583,2.645c-0.853,0.281-1.716,0.312-2.59,0.125
		c-1.067-0.258-1.853-1.022-2.772-1.547c-2.332-1.33-4.654-1.754-6.865,0.271c-0.829,0.758-1.889,1.5-2.847,0.715
		c-2.616-2.144-6.251-3.047-7.885-6.39c-0.196-0.248-0.382-0.51-0.572-0.762c-0.103-0.115-0.197-0.24-0.302-0.354
		c-0.218-0.214-0.429-0.435-0.647-0.646c-0.46-0.391-0.958-0.736-1.436-1.104c-0.701-0.673-1.622-0.755-2.509-0.929
		c-0.308-0.076-0.597-0.196-0.874-0.352c-0.954-0.685-1.233-1.769-1.653-2.767c-0.234-0.539-0.49-1.067-0.811-1.563
		c-0.494-0.727-0.938-1.484-1.466-2.191c-0.285-0.366-0.526-0.758-0.688-1.198c-0.178-0.63-0.168-1.25,0.076-1.861
		c0.226-0.408,0.53-0.752,0.896-1.041c0.759-0.41,1.534-0.797,2.23-1.32c0.479-0.271,1.158-0.02,1.521-0.588
		c0.246-0.227,0.493-0.451,0.739-0.678c0.394-0.482,0.663-1.213,1.522-0.756c2.788,0.612,5.651,0.985,8.406,0.303
		c1.318-0.326,1.52,0.846,2.364,0.918c0.128-0.205,0.266-0.383,0.358-0.582c0.313-0.664-1.1-1.852,0.335-2.02
		c1.356-0.158,2.291,0.604,1.485,2.237c-0.157,0.32-0.108,0.703,0.578,1.049c2.668-0.733,5.642-1.129,8.706-1.186
		c2.035-0.037,4.059-0.961,6.076-1.527c1.382-0.387,2.167-1.146,1.137-2.569c-0.603-0.832-0.497-1.591,0.066-2.273
		c0.881-1.065,1.324-2.018-0.187-2.891c0.844-1.357,0.425-3.246,1.869-4.361c1.786-1.377,3.598-2.748,3.649-5.33
		c0.014-0.713,0.609-0.84,1.137-1.145c2.247-1.292,4.212-3.14,6.945-3.442c0.93-0.104,1.348-0.916,2.028-1.359
		c2.787-1.816,4.628-4.916,8.371-5.564c1.044-0.181,2.029-2.007,3.556-2.516c2.28-0.76,3.02-0.586,3.05,1.623
		c0.028,2.075,1.107,3.259,2.52,4.596c1.308-0.775,2.21-2.024,3.645-2.679c1.979-0.901,2.166-3.289,2.914-5.077
		c0.509-1.215,1.1-1.778,2.201-2.42c3.003-1.749,6.39-3.321,6.587-7.57c2.91-2.927,8.226-2.521,12.028,0.92
		c2.75,2.489,2.799,6.666,0.112,9.948c-3.063,3.745-2.778,5.271,1.576,7.396c2.418,1.18,3.055,3.02,2.814,5.559
		c-0.402,4.256-1.031,8.502-1.072,12.784c-0.024,2.425,0.317,3.896,3.731,3.265c3.422-0.635,7.104-0.947,10.644-0.332
		c2.112,0.367,2.854-0.336,2.873-2.324c0.009-0.826-0.049-1.686,0.215-2.481c0.629-1.906,2.395-2.445,3.412-0.834
		c1.647,2.612,4.135,4.586,5.326,7.555c0.969,2.412,2.178,4.781,4.649,6.146c0.736,0.406,1.414,1.031,1.063,2.015
		c-0.31,0.86-1.133,1.448-1.943,1.346c-6.012-0.768-7.502,2.566-7.229,7.689c0.059,1.092-0.593,2.034-1.246,2.905
		c-0.688,0.914-1.039,1.906-0.388,2.976c0.724,1.182,1.808,0.922,2.861,0.598c1.594-0.49,3.246-0.721,4.844-1.229
		c4.148-1.318,7.8,0.01,10.447,3.604c1.25,1.693,2.762,2.951,5.08,2.736c0.951-0.088,1.914-0.025,2.701,0.662
		c0.078,2.252-2.125,2.237-3.279,3.256c-1.158,1.02-2.76,1.84-2.559,3.606c0.229,2.017,2.27,1.697,3.612,2.301
		c6.091,2.74,12.996,3.951,17.603,9.498c0.865,1.043,1.981,1.937,1.504,3.369c-0.768,2.304,0.404,3.48,2.064,4.736
		c3.114,2.354,3.049,3.729,0.021,6.086c-1.52,1.184-3.322,1.873-4.936,2.885c-3.867,2.426-3.838,4.377,0.018,6.779
		c0.959,0.598,1.965,0.774,3.055,0.834c1.941,0.104,2.162,1.195,1.354,2.674c-1.168,2.144-2.703,3.639-5.457,2.881
		c-1.262-0.348-2.563-0.571-3.875-0.655c-0.812-0.054-1.844-0.384-2.303,0.469c-0.574,1.063,0.53,1.682,1.065,2.401
		c0.896,1.201,2.211,1.802,3.572,2.269c7.514,2.586,10.564,8.029,11.063,15.766c0.263,4.06,1.697,8.226,1.785,12.213
		c0.127,5.783,3.994,11.365,0.773,17.394c-1.025,1.918,0.055,4.475,0.465,6.678c0.555,2.971-0.584,4.562-3.406,5.195
		c-3.147,0.707-6.139,2.082-8.981,3.381c-3.117,1.424-5.398,4.521-8.136,6.789c-2.848,2.356-5.049,5.367-7.676,7.965
		c-2.971,2.938-6.356,3.08-9.932,2.152c-3.693-0.957-5.994,0.414-6.432,4.26c-0.15,1.33,0.147,2.613,0.452,3.889
		c0.408,1.717-0.024,3.076-1.623,3.937c-1.034,0.559-2.463,0.907-1.842,2.518c0.804,2.084,0.095,5.041,3.191,5.877
		c2.873,0.775,5.715,1.705,8.74,1.75c3.961,0.057,7.825,0.711,11.573,2c1.595,0.549,3.217,0.846,4.906,0.873
		c5.117,0.08,9.463,2.072,13.32,5.348c1.6,1.357,2.789,2.9,3.281,4.972c0.473,1.989,1.334,3.836,2.442,5.541
		c2.476,3.801,1.797,7.637,0.26,11.508c-0.862,1.373-1.864,2.356-3.729,1.936c-0.637-0.143-1.568-0.004-2.055,0.39
		c-2.234,1.811-4.611,1.239-7.074,0.776c-2.545-0.477-5.066-0.746-7.043,1.664c-0.959,1.172-2.277,2.045-3.416,3.076
		c-0.463,0.42-0.969,0.615-1.594,0.678c-2.031,0.197-3.347,1.211-3.476,3.281c-0.129,2.045-1.352,2.996-2.59,4.342
		c-1.973,2.146-4.553,3.726-5.924,6.511c-0.769,1.561-2.283,2.553-4.371,2.506c-1.906-0.045-3.797,0.129-5.635-0.541
		c-3.052-1.113-6.25-0.334-9.369-0.652c-1.019-0.105-2.189,0.348-2.691,1.844c-1.309,3.898-4.133,5.738-8.295,6.271
		c-3.162,0.405-6.168,1.244-9.405,0.317c-2.226-0.637-5.114,1.216-4.913,3.279c0.339,3.443-2.281,5.053-3.74,7.383
		c-1.161,1.857-3,2.992-4.744,4.236c-2.606,1.854-2.88,2.838-0.915,5.139c1.155,1.354,1.43,2.418,0.154,3.558
		c-2.173,1.936-2.932,4.866-5.014,6.848c-0.605,0.576-0.389,1.146-0.136,1.904c1.723,5.157,0.31,10.344-0.178,15.485
		c-0.312,3.271-0.428,5.918,2.227,8.688c2.359,2.463,3.592,6.053,5.128,9.238c0.772,1.602-0.401,4.254-1.984,5.407
		c-0.569,0.416-1.099,0.9-1.583,1.412c-0.878,0.926-1.207,1.752-0.29,3.062c1.897,2.703,3.523,5.602,5.26,8.42
		c0.177,0.289,0.427,0.569,0.487,0.885c0.459,2.383,0.809,3.396,1.714,4.463c-1.806,1.461-3.577,2.974-5.434,4.375
		c-1.97,1.486-3.361,3.279-3.934,5.744c-0.31,1.332-0.654,2.666-2.55,2.949c-2.862,0.426-3.876,2.795-3.82,5.229
		c0.082,3.535-1.481,6.412-2.788,9.459c-0.572,1.334-1.34,1.695-2.741,1.584c-3.313-0.268-6.704-0.633-9.79,1.019
		C599.336,783.533,597.851,784.223,596.234,784.646z"/>
	<path id="Ferizaji" fill="#383535" stroke="#FFFFFF" stroke-width="2" d="M717.066,630.578c-0.05-2.141-0.218-4.287,0.541-6.369
		c0.44-1.215,0.166-2.381-0.623-3.361c-1.98-2.463-3.32-5.194-3.832-8.334c-0.136-0.826-0.568-1.549-1.226-2.131
		c-4.102-3.637-8.6-6.406-14.328-6.217c-1.862,0.061-3.53-0.525-5.204-1.088c-3.304-1.107-6.654-1.666-10.146-1.715
		c-3.838-0.056-7.506-1.185-11.182-2.188c-1.234-0.336-1.726-1.096-1.779-2.322c-0.096-2.174-0.848-4.161-2-5.87
		c0.772-1.312,1.947-1.052,2.965-1.271c2.168-0.473,2.438-0.967,1.799-3.197c-1.1-3.832-0.784-7.164,2.543-9.989
		c1.188-1.011,1.732-1.185,2.908-0.261c3.219,2.535,7.332,2.213,10.211-0.703c2.756-2.793,5.506-5.592,8.242-8.407
		c0.834-0.859,1.783-1.531,2.793-2.179c0.974-0.621,2.32-1.065,2.603-2.321c0.545-2.423,2.364-2.738,4.323-2.923
		c0.838-0.077,1.636-0.184,2.377-0.653c1.722-1.094,3.627-1.563,5.621-2.037c3.054-0.725,3.535-1.252,2.367-4.113
		c-0.76-1.856-0.41-3.971-1.078-5.912c-0.354-1.034,0.613-1.979,0.994-2.967c0.822-2.133,2.207-4.184,0.137-6.59
		c-0.811-0.943-0.944-2.738-0.868-4.117c0.133-2.406,0.559-4.771-1.214-6.805c0.714-3.105-0.873-5.955-1.008-8.859
		c-0.112-2.461-0.965-4.815-0.742-7.283c0.111-1.223-1.141-1.768-1.543-2.688c-1.809-4.131-5.68-5.588-9.389-6.705
		c-2.58-0.775-3.119-3.039-4.807-4.383c-0.904-0.719,1.008-2.955,2.414-2.379c1.541,0.629,3.049,0.354,4.541,0.662
		c1.147,0.235,2.678,1.006,3.379,0.541c1.369-0.902,2.409-2.41,3.502-4.66c-4.478,2.385-6.156-1.281-8.595-2.951
		c-1.088-0.746-1.245-1.836,0.173-3.188c1.84-1.752,3.83-3.086,6.055-4.153c0.762-0.365,1.459-0.75,2.1-1.306
		c2.781-2.409,2.797-2.397-0.309-4.543c-0.683-0.471-1.418-0.868-2.068-1.381c-1.442-1.137-1.621-2.102-0.487-3.699
		c1.047-1.477,0.768-2.393-0.888-2.952c-0.817-0.275-1.725-0.642-1.998-1.4c-1.119-3.094-3.955-3.451-6.502-4.166
		c-1.287-0.361-2.379-0.791-3.446-1.666c-2.125-1.738-4.884-2.022-7.445-2.734c-0.957-0.266-2.479,0.105-2.604-1.311
		c-0.106-1.234-0.082-2.596,0.935-3.699c1.399-1.52,2.957-2.733,4.944-3.369c0.443-0.141,0.832-0.44,1.246-0.67
		c0.267-0.707,0.886-0.771,1.463-0.676c2.425,0.404,4.16-0.512,5.359-2.611c2.158-3.782,6.408-4.731,9.654-7.041
		c1.297-0.922,2.492-0.151,3.408,0.957c1.44,1.744,2.85,3.521,4.067,5.427c1.531,2.389,3.295,2.336,5.412,0.85
		c3.615-2.537,4.678-2.549,7.289,0.91c1.229,1.627,2.154,1.402,3.895,1.289c4.359-0.281,8.964-1.531,12.773,2.363
		c1.482,1.512,4.033,1.149,6.174,1.146c0.859-0.137,1.81,0.029,2.474-0.756c0.252-0.385,0.5-0.769,0.797-1.121
		c1.438-1.102,3.049-1.93,4.571-2.896c0.511-0.149,1.023-0.159,1.541-0.049c1.615,0.517,3.115,1.088,3.533,3.078
		c0.435,2.063,2.006,2.469,3.849,2.234c2.008-0.254,3.991-0.668,5.998-0.929c3.438-0.448,4.87,0.488,5.772,3.744
		c0.127,0.459,0.188,0.935,0.299,1.396c0.914,3.809,4.933,5.309,7.563,2.369c2.604-2.91,5.147-2.549,7.942-1.193
		c1.531,0.744,2.24,0.01,3.433-0.648c5.856-3.245,11.938-4.622,18.285-1.235c0.422,0.225-0.142,0.063,0.307,0.174
		c4.156,1.033,7.316,3.34,9.525,7.045c0.998,1.676,2.237,1.74,3.752,0.297c1.061-1.01,2.321-2.123,4.092-1.53
		c2.219,2.364,3.795,5.815,4.156,8.831c0.129,1.087,0.608,2.179,1.756,2.472c3.186,0.817,4.551,4.035,7.313,5.422
		c0.697,0.352,0.605,1.268,0.334,2.215c-1.203,4.188-2.157,8.443-3.295,12.65c-0.25,0.926-0.086,1.526,0.49,2.239
		c0.971,1.195,1.713,2.591,2.75,3.722c0.881,0.959,1.18,1.951,1.223,3.207c0.062,1.729,0.113,3.705-1.471,4.489
		c-1.676,0.834-4.094,0.533-5.309-0.713c-1.517-1.555-2.957-1.137-4.158-0.53c-2.902,1.467-6.307,1.735-8.92,3.858
		c-0.705,0.572-1.42,0.334-2.254-0.166c-1.281-0.768-2.226,0.127-2.072,1.344c0.436,3.455-0.324,6.57-1.842,9.646
		c-0.754,1.523,0.396,2.576,1.715,2.957c1.02,0.293,1.629,0.889,2.252,1.588c0.965,1.082-0.35,1.662-0.566,2.488
		c-0.352,1.342,0.113,2.227,1.371,2.885c2.861,1.5,5.519,0.943,7.812-1.955c0.672-0.848,1.258-1.719,2.19-2.291
		c0.566-0.348,1.099-0.373,1.621,0.096c0.527,0.474,0.666,1.181,0.23,1.578c-1.642,1.506-1.479,3.035-0.438,4.775
		c0.328,0.545-0.012,1.021-0.711,1.32c-2.965,1.266-5.229,2.963-6.264,6.44c-0.744,2.506-2.82,4.615-4.349,6.971
		c1.601,1.853,3.263,3.668,1.935,6.23c0.912,0.945,1.979,0.297,2.817,0.713c0.404,0.199,1.048-0.002,1.229,0.551
		c1.225,3.701,4.881,6.054,5.477,10.187c0.173,1.19,0.854,2.85,3.146,2.553c1.602-0.207,2.66,2.012,4.156,2.32
		c1.514,0.309,3.102-1.175,4.83-0.64c2.092,0.648,4.483,0.681,5.672,3.123c0.389,0.804,1.268,1.478,2.395,1.092
		c1.09-0.37,1.883-0.952,1.793-2.305c-0.037-0.563,0.062-1.217,0.326-1.703c0.299-0.543,1.039-0.887,1.461-0.244
		c3.094,4.726,7.525,7.908,12.229,10.791c-2.688,1.257-3.101,4.093-3.525,6.354c-0.387,2.061-1.393,2.697-2.854,2.76
		c-1.763,0.074-2.156,1.266-3.142,2.258c-1.608,1.625-2.229,3.758-3.651,5.451c-1.238,1.475-2.365,2.135-4.177,1.619
		c-0.446-1.725-0.676,0.324-1.039,0.061c-1.586,1.703-1.764,3.558-0.563,5.533c0.307,0.506,0.922,1.023,0.699,1.574
		c-1.252,3.098-1.861,6.588-4.599,8.861c-2.129,1.77-2.879,3.467-1.754,6.018c0.553,1.25,0.463,1.967-0.203,3.187
		c-1.223,2.243-3.344,4.067-3.494,6.87c-0.016,0.302-0.297,0.677-0.563,0.859c-1.308,0.9-3.504,1.563-1.732,3.635
		c1.072,1.256-0.594,3.188,1.431,4.021c0.952,0.393,0.881,1.6,1.196,2.481c0.349,0.966,0.188,2.164,1.361,2.781
		c0.363,0.193,0.842,0.935,0.732,1.144c-1.123,2.137,0.997,3.188,1.495,4.762c0.068,0.215,0.056,0.455,0.082,0.713
		c-0.426,0.766-1.244,0.51-1.887,0.639c-4.758,0.941-4.76,0.929-7.543-2.684c-1.523,1.301-1.592,3.707-3.557,4.645
		c-2.343,1.119-4.355,3.189-6.563,4.015c-4.967,1.854-10.399,3.602-15.373-0.386c-0.67-0.536-1.024-0.233-1.522-0.024
		c-0.978,0.406-1.945,0.832-3.164,1.356c0.149-2.127-0.685-3.635-1.861-5.198c-1.223-1.627-2.225-3.531-1.162-5.929
		c0.646-1.457,0.682-3.254,0.697-4.899c0.022-2.248-0.168-4.467-1.98-6.246c-0.602-0.592-1.037-1.494-1.342-2.445
		c-0.455-1.41-1.108-2.983-2.176-3.926c-2.771-2.445-3.861-6.164-6.504-8.521c-3.164-2.821-3.586-7.039-6.033-10.155
		c-0.553-0.705-0.779-1.604-0.707-2.648c0.121-1.744-1.373-2.879-2.086-4.32c-0.795-1.608-2.09-1.821-3.742-2.122
		c-3.846-0.697-7.649-1.642-11.522-2.242c-0.56-0.088-1.072-0.459-1.613-0.687c-1.004-0.422-1.195-2.035-2.885-1.584
		c-2.232,0.599-4.828-0.164-6.685,1.838c-0.483,0.521-1.115,0.992-1.377,1.613c-1.666,3.957-4.945,5.889-8.82,6.873
		c-2.663,0.676-3.864,2.871-5.567,4.563c-0.494,0.489-0.674,1.338-1.209,1.733c-2.031,1.498-1.744,4.799-4.49,5.689
		c-2.367,0.766-3.863,2.672-5.463,4.354c-2.283,2.404-4.854,3.933-8.248,3.822c-0.621-0.021-1.16,0.213-1.596,0.672
		C723.172,629.531,719.986,629.732,717.066,630.578z"/>
	<path id="Prishtina" fill="#383535" stroke="#FFFFFF" stroke-width="2" d="M758.643,445.898c-0.547,2.293-2.889,1.819-4.295,2.789
		c-0.547,0.79-1.45,1.098-2.198,1.614c-0.234,0.193-0.451,0.404-0.65,0.636c-2.264,0.649-4.432-0.23-6.641-0.433
		c-0.759-0.067-1.313-0.666-1.604-1.301c-0.781-1.695-2.104-2.002-3.809-1.932c-2.017,0.084-4.045,0.204-6.06-0.187
		c-1.369-0.264-2.551,0.248-3.791,1.281c-1.104-1.603-2.444-2.914-3.823-4.188c-1.584-1.463-2.101-1.547-3.396,0.179
		c-0.861,1.146-1.758,1.803-3.139,2.022c-1.857,0.295-3.263,0.271-4.334-1.832c-1.117-2.19-2.894-4.051-4.41-6.031
		c-0.728-0.948-1.408-1.262-2.654-0.428c-2.035,1.359-3.758,3.189-6.379,3.769c-1.129,0.25-2.25,2.03-2.611,3.024
		c-1.241,3.424-3.549,3.371-6.313,2.795c-0.349-0.073-0.711-0.061-1.068-0.088c-0.764-0.396-1.6-0.57-2.428-0.436
		c-3.707,0.604-5.963-0.955-6.957-4.515c-0.09-0.325-0.371-0.901-0.457-0.883c-2.418,0.541-4.373-2.24-6.723-1.111
		c-2.33,1.119-5.013,0.748-7.283,2.166c-1.486,0.927-2.49,0.265-3.254-1.434c-0.75-1.666-1.133-2.783,0.961-4.238
		c2-1.389,1-4.43,1.422-6.723c0.08-0.432-0.232-0.92-0.264-1.389c-0.142-2.146,0.196-2.427,2.33-2.31
		c2.555,0.144,5.084,0.008,7.649-0.762c-0.297-0.557-0.381-0.918-0.518-0.939c-3.58-0.559-4.629-3.551-5.978-6.225
		c-0.993-1.973-1.375-4.277-3.907-5.248c-0.679-0.262-0.847-1.84-1.265-2.805c-0.229-0.535-0.446-1.187-1.201-1.049
		c-0.772,0.141-1.483,0.76-1.262,1.465c0.531,1.676-0.34,3.28-0.002,4.924c0.271,1.313-0.257,1.871-1.559,1.217
		c-2.597-1.307-5.24-1.272-7.939-0.41c-0.336,0.109-0.747,0.3-1.035,0.197c-2.537-0.891-4.854-0.582-6.921,1.701
		c-1.559-3.64-2.087-6.902-1.245-10.188c0.834-3.25,0.162-6.625,1.225-9.864c0.492-1.503-1.229-3.131-3.218-3.663
		c-0.968-0.259-2.269,0.177-2.674-1.246c-0.416-1.462-1.516-2.782-1.038-4.431c0.194-0.669,0.469-1.761,0.879-1.849
		c2.638-0.566,2.301-2.894,3.125-4.615c1.171-2.442-0.11-4.083-1.692-5.173c-2.139-1.473-4.227-3.475-7.447-2.35
		c-1.186,0.414-2.773-0.27-3.918,0.877c-0.395-0.157-0.79-0.315-1.184-0.473c2.802-2.738,2.104-5.931,1.242-9.182
		c-1.023-3.862-0.103-7.451,2.108-10.611c1.256-1.796,1.635-3.311,0.377-5.164c-0.386-0.57-0.669-1.268-0.794-1.945
		c-0.274-1.484,0.436-2.355,1.944-2.021c3.667,0.813,6.703-0.182,9.354-2.701c0.515-0.367,0.769-0.021,1.006,0.365
		c0.254,0.453-0.156,1.594,1.075,1.04c0.368-0.678,0.875-0.923,1.591-0.505c0.456,0.165,0.928,0.683,1.34-0.063
		c0.938-1.145,2.537-1.064,3.597-1.913c0.878-0.706,1.903-1.423,0.647-2.878c-2.278-2.641-1.783-6.236-2.832-9.32
		c-0.227-0.665,0.414-1.585,1.146-1.555c2.288,0.092,3.812-1.993,6.017-1.959c1.051,0.017,1.492-0.447,1.57-1.449
		c0.102-1.282,0.934-2.109,1.857-2.898c2.047-1.749,2.815-1.938,4.893-0.213c1.174,0.975,1.979,1.424,3.307,0.401
		c0.617-0.478,1.373-0.123,1.861,0.509c0.217,0.278,0.449,0.584,0.543,0.914c0.926,3.263,3.654,5.244,5.611,7.944
		c1.774-1.503,2.944-3.372,3.51-5.581c0.555-2.174,1.66-3.922,3.555-5.113c2.314-1.455,3.107-4.15,5.002-6.135
		c2.386,2.264,4.847,2.636,7.625,0.701c1.271-0.884,2.631-1.613,3.668-2.795c0.605-0.69,0.988-1.983,2.039-1.738
		c1.402,0.326,1.591,1.949,1.431,2.956c-0.521,3.288,1.432,4.815,3.84,6.111c2.088,1.123,3.401,2.885,4.389,4.962
		c0.931,1.959,2.644,3.564,2.349,6.529c2.243-1.672,3.981-3.404,6.577-2.021c0.521,0.277,1.939-0.135,2.257-0.65
		c1.104-1.805,2.981-2.262,4.616-3.172c0.513-0.285,1.359-0.738,1.345-1.08c-0.127-2.676,2.364-3.044,3.696-4.412
		c0.248-0.254,0.515-0.734,0.744-0.719c1.785,0.115,3.584,0.346,2.375-2.434c1.349-0.44,2.261-2.056,3.404-2.139
		c1.512-0.111,2.69-0.732,4.018-1.165c2.418-0.788,2.435-0.743,1.998-3.203c-0.473-2.675-0.473-2.675,2.158-3.086
		c2.603,0.646,2.844,0.601,3.551-0.652c-1.241-0.894-0.202-2.839-1.771-3.681c-0.762-0.409-0.035-1.037,0.348-1.389
		c0.785-0.723,1.615-1.405,2.484-2.021c1.209-0.856,2.467-1.607,1.463-3.424c-0.471-0.854,0.307-1.213,0.813-1.707
		c1.89-1.848,1.98-2.772,0.789-5.043c-0.551-1.049-1.455-2.246-1.315-3.255c0.332-2.413-1.053-2.144-2.619-1.897
		c-0.07-1.881,0.721-3.396,1.039-5.004c0.225-1.143,0.762-1.84,1.93-2.283c1.875-0.712,3.101-2.058,3.438-4.191
		c0.254-1.592,1.229-2.396,3.035-2.219c1.155,0.113,2.364-0.226,3.541-0.426c1.104-0.188,2.194-0.695,2.483-1.785
		c0.67-2.514,2.281-3.163,4.597-2.701c1.1,0.219,1.614-0.245,1.555-1.29c-0.211-3.674-1.248-7.401-3.313-10.142
		c-2.479-3.289-5.36-6.951-9.897-7.67c-2.123-0.336-2.566-1.355-1.92-2.744c1.022-2.198,0.346-3.857-0.787-5.637
		c-0.769-1.203-1.525-2.467-0.129-3.832c0.399-0.393,0.674-1.181,0.069-1.592c-1.735-1.185-1.202-2.833-1.233-4.477
		c-0.025-1.256-0.683-2.488-0.947-3.753c-0.277-1.32-1.381-2.551-0.461-4.039c0.158-0.254,0.158-0.877-0.021-1.029
		c-2.327-1.964-2.061-5.622-4.721-7.295c-1.137-0.716-1.494-1.387-0.836-2.596c0.488-0.898,0.273-1.712-0.203-2.67
		c-0.922-1.845-0.52-2.354,1.422-2.275c0.787,0.032,1.564,0.698,2.605-0.145c-1.76-3.064,1.221-5.129,1.971-7.768
		c0.746-2.618,2.375-4.94,2.166-7.887c-0.115-1.648,1.066-3.106,1.209-4.807c0.135-1.634,0.871-3.211-0.213-4.831
		c-0.57-0.853,0.234-1.456,0.73-2.129c0.95-1.292,1.086-2.612-0.384-3.708c-1.106-0.825-1.287-1.974-1.68-3.264
		c-0.92-3.015-2.041-6.038-3.307-8.908c-1.728-3.909-3.064-7.973-4.916-11.832c-0.966-2.016-2.037-3.75-4.168-4.587
		c-1.121-0.441-2-0.927-2.591-2.159c-0.645-1.344-2.596-0.679-3.707-1.817c-0.612-0.628-1.016-0.723-0.797-1.803
		c1.002-4.942-0.641-9.377-4.473-12.242c-2.072-1.548-3.361-2.567-2.85-5.156c0.205-1.047-0.755-0.904-1.355-1.207
		c-2.303-1.157-2.33-1.473-1.775-4.196c0.205-1.018,0.119-2.146-0.071-3.181c-0.306-1.668-0.521-3.4-0.127-4.975
		c0.526-2.112-0.207-3.704-1.216-5.363c-1.106-1.823-1.893-3.345-4.846-2.984c-2.574,0.315-4.953-1.849-6.959-3.679
		c-0.83-0.759-1.098-1.911-0.461-2.962c0.846-1.399-0.252-1.894-1.041-2.566c0.434-1.21-1.209-2.552,0.162-3.664
		c1.387-1.125,2.797-2.167,4.791-2.07c1.756,0.086,3.596,0.265,5.166-0.913c0.164-0.124,0.527-0.242,0.623-0.16
		c2.305,1.991,5.895,0.742,8.01,3.18c0.078,0.089,0.144,0.231,0.238,0.257c5.09,1.392,6.834,6.404,10.291,9.559
		c1.018,0.926,2.34,1.583,2.901,3.036c0.296,0.758,1.285,0.791,1.88,0.396c1.391-0.922,3.559-0.415,4.327-2.687
		c0.226-0.666,2.064-0.814,3.185-1.142c2.4-0.705,3.326-1.443,2.699-3.706c-1.158-4.167,1.651-5.666,4.307-7.799
		c1.275,3.529,4.797,5.479,5.197,9.312c0.117,1.102,1.547,0.446,2.028,1.099c1.898,2.566,4.158,3.394,7.406,2.568
		c0.992-0.252,2.412,0.423,3.586-0.415c0.644-0.459,1.101-0.066,1.463,0.466c0.4,0.587,1.041,1.145,1.136,1.78
		c0.428,2.874,1.852,5.372,2.813,8.041c0.59,1.634,0.728,2.97-1.104,4.27c-2.422,1.719-2.256,2.543-1.373,4.77
		c0.643,1.623,1.047,3.436,2.051,4.8c2.068,2.813,2.148,5.917,2.205,9.166c0.063,3.717,0.086,7.433,1.088,11.106
		c0.467,1.718,1.004,2.545,2.801,2.337c1.545-0.179,2.211,0.447,1.9,2.076c-0.305,1.608,0.258,3.383-0.922,4.822
		c-0.709,0.865-0.076,1.557,0.271,2.279c0.854,1.774,1.894,3.482,2.527,5.331c0.465,1.352,1.201,1.431,2.117,0.896
		c2.055-1.197,4.037-2.521,6.03-3.822c0.709-0.463,0.808-1.32,0.535-1.925c-0.811-1.811,0.123-3.137,0.916-4.601
		c1.228-2.271,3.445-3.163,5.715-2.123c0.646,0.296,1.271,0.965,1.894,0.947c3.406-0.098,4.654,2.53,6.545,4.613
		c2.707,2.983,3.17,6.334,3.023,10.087c-0.058,1.43,0.118,2.91,0.977,4.336c1.061,1.765,1.971,3.81,0.207,5.85
		c-0.48,0.558-0.107,1.383-0.195,2.05c-0.274,2.076-0.231,4.231-1.639,6.063c-1.48,1.929-1.078,4-0.08,6.059
		c1.316,2.715,2.738,5.391,3.535,8.329c0.092,0.335,0.178,0.745,0.412,0.956c4.075,3.659,5.821,8.983,9.321,13.092
		c1.011,1.184,1.023,3.526,0.957,5.42c-0.043,1.229-0.016,2.506,1.396,2.973c1.506,0.498,2.824-0.003,3.832-1.217
		c0.377-0.454,0.61-1.027,0.992-1.477c1.108-1.311,2.303-2.435,4.188-1.294c0.678,0.41,1.629,0.557,1.857-0.213
		c0.717-2.419,2.172-1.137,3.297-0.709c2.221,0.844,4.422,1.348,6.776,0.711c0.867-0.234,1.638-0.072,2.304,0.582
		c0.502,0.493,1.021,0.87,1.813,0.992c2.666,0.413,3.166,0.924,3.086,3.467c-0.026,0.815-0.088,1.478,0.689,1.733
		c1.768,0.582,1.897,1.889,1.781,3.424c-0.104,1.362-0.074,2.608,1.797,2.884c1.522,0.225,1.76,1.786,2.444,2.867
		c0.623,0.983,1.22,1.441,2.607,0.779c2.469-1.177,4.334-0.535,6.1,1.549c1.502,1.773,3.388,1.656,4.412-0.457
		c0.691-1.428,2.01-1.958,3.156-1.956c3.961,0.005,7.973-0.823,11.895,0.435c0.543,0.174,1.324,0.041,1.402,0.783
		c0.369,3.405,0.818,6.809,0.723,10.246c-0.022,0.843-0.715,1.064-1.418,1.358c-3.508,1.471-3.866,2.058-3.766,5.784
		c0.025,0.952,0.16,1.9,0.195,2.852c0.03,0.841,0.041,1.766-0.74,2.277c-0.934,0.611-2.107,1.379-1.877,2.39
		c0.467,2.05-0.103,4.25,1.08,6.2c0.584,0.967,1.5,1.813,1.358,3.198c-0.145,1.44-0.473,2.196-2.182,1.936
		c-2.748-0.42-2.744-0.319-3.475,2.243c-0.228,0.797-0.521,1.588-0.886,2.332c-0.577,1.183-0.586,1.984,0.943,2.383
		c1.105,0.287,1.588,0.91,0.596,2.023c-1.28,1.438-1.52,3.762-0.813,4.905c1.555,2.519-0.453,4.326-0.472,6.45
		c-0.002,0.27-0.344,0.732-0.586,0.775c-2.737,0.474-3.961,2.836-5.707,4.527c-2.35,2.273-1.452,6.443,1.607,7.77
		c1.711,0.742,3.541,0.766,5.256,0.459c4.424-0.792,8.721-2.347,13.303-2.152c1.185,0.051,1.636-1.43,3.07-1.188
		c0.543,3.823,4.043,5.045,6.758,7.219c1.47-1.198,1.793-3.02,2.717-4.456c1.105-1.718,1.941-1.862,3.343-0.329
		c1.235,1.354,2.621,2.299,4.282,3.063c1.556,0.716,3.13,1.665,3.541,3.616c-0.477,0.356-0.84,0.752-1.075,1.354
		c-0.896,2.28-1.117,5.088-4.41,5.557c-0.688,0.099-1.188,1.086-0.68,1.734c1.11,1.425,0.125,2.271-0.494,3.416
		c-0.552,1.018-1.318,1.929-1.543,3.179c-0.511,2.842-0.591,2.771-3.298,2.622c-1.331-0.073-2.569-0.435-3.84-0.75
		c-1.377-0.344-2.938-1.125-4.137-0.77c-2.369,0.701-3.4-0.088-3.813-2.223c-0.277-1.438-1.511-1.691-2.492-2.307
		c-0.771-0.482-1.457-0.426-1.699,0.418c-0.467,1.629-1.479,1.63-2.758,1.184c-0.111-0.038-0.242-0.084-0.351-0.061
		c-1.289,0.297-3.067-0.375-3.58,1.523c-0.35,1.297,1.359,4.137,2.599,4.551c0.897,0.301,1.836,0.492,2.754,0.736
		c1.465,0.39,1.867,0.91,0.992,2.51c-1.42,2.59,0.022,5.585,2.899,5.873c2.578,0.257,4.384,1.29,6.136,3.102
		c1.375,1.42,3.155,2.56,4.946,3.434c1.662,0.813,2.502,2.045,3.156,3.363c-0.221,1.096-0.877,0.971-1.438,0.955
		c-1.232-0.033-1.4,0.709-1.152,1.639c0.396,1.48,1.275,2.801,1.262,4.436c-0.006,0.844,0.834,1.244,1.57,0.998
		c2.938-0.982,3.727,0.532,4.713,3.036c0.717,1.816,1.203,4.091,3.121,5.393c0.559,0.378,1.281,1.152,1.229,1.679
		c-0.245,2.571,1.619,3.616,3.207,4.9c0.318,0.508,0.183,1.713,1.369,0.898c-0.004-0.59,0.082-1.196-0.028-1.764
		c-0.466-2.355-0.109-4.164,2.569-4.96c0.922-0.274,1.816-0.787,1.777-2.27c-0.039-1.489,2.049-2.843,3.445-2.294
		c1.838,0.723,3.883,1.439,4.245,3.856c0.531,3.517,2.097,6.702,3.148,10.052c0.209,0.666,0.342,1.389,0.336,2.083
		c-0.031,3.034,0.848,5.529,3.771,6.964c0.27,0.133,0.569,0.576,0.549,0.852c-0.041,0.5-0.49,0.756-0.996,0.839
		c-1.881,0.31-3.713-1.03-5.824,0.034c0.629,1.381,1.424,2.931-0.113,4.453c-0.424,0.421,0.363,1.016,0.705,1.476
		c0.371,0.951,1.074,2.034-0.819,2.099c-0.705-0.583-1.593-0.715-2.367-0.474c-1.922,0.596-3.254,0.167-4.68-1.372
		c-0.896-0.966-2.584-1.31-3.986-1.652c-0.889-0.218-2.107,0.027-2.025,1.335c0.084,1.361-0.621,1.775-1.646,2.352
		c-3.775,2.121-4.691,6.165-2.367,9.84c0.551,0.83,0.248,1.767,0.313,2.654c0.111,1.525,0.882,1.676,2.063,1.031
		c1.086,2.867,3.852,4.856,4.354,8.018c-1.598,1.188-3.396-0.141-5.108,0.787c0.297,1.674,0.393,3.396-0.203,5.129
		c-0.432,1.256-0.234,2.478,0.699,3.662c1.682,2.135,1.674,4.896,2.139,7.416c0.377,2.027-0.477,4.146,0.541,6.271
		c0.594,1.241-0.813,2.938-2.375,3.58c-0.426,0.176-0.846,0.385-1.238,0.629c-0.957,0.6-1.147,1.756-1.77,2.526
		c-0.58,0.72-2.002-0.879-2.855,0.299c-1.125,1.556-2.313,1.027-3.26-0.024c-0.895-0.998-1.617-1.295-2.645-0.316
		c-0.902,0.859-1.804,0.631-2.939,0.281c-1.762-0.543-2.512,0.148-2.818,2.043c-0.059,0.353-0.059,0.711-0.078,1.068
		c-0.129,2.297-0.661,4.321-3.27,5.008c-0.709,0.188-1.264,0.594-1.705,1.215c-0.713,1.002-1.631,1.275-2.799,0.684
		c-1.719-0.868-3.693,0.55-5.353-0.827c-0.247,0.957-0.424,1.635-0.584,2.256c-0.471,0.127-0.774,0.033-1.038-0.238
		c-0.658-0.68-1.259-1.438-2.003-2.008c-0.944-0.728-2.12-1.551-2.93,0.086c-0.813,1.646-2.565,0.918-3.717,1.709
		c-0.537,0.369-1.146-0.15-1.297-0.813c-0.226-0.985-1.123-1.521-1.648-2.668c2.976-0.883,5.267-2.711,7.437-4.907
		c2.539-2.572,3.756-5.354,3.403-8.933c-0.194-1.979-0.52-3.99,0.488-5.936c0.281-0.545,0.258-1.646-0.111-2.064
		c-2.375-2.705-2.754-6.91-6.639-8.521c-1.693-0.703-2.131-2.791-3.318-4.121c-1.719-1.926-1.86-1.974-3.209,0.1
		c-2.112,3.254-5.012,5.89-7.098,9.211c-0.76,1.211-3.123,2.105-4.85,1.301c-1.582-0.737-3.58-1.561-3.195-4.129
		c0.113-0.754-0.254-1.653-0.604-2.389c-1.177-2.461-1.175-4.793,0.383-7.104c0.625-0.929,0.623-1.964,0.356-3.085
		c-0.385-1.612-0.647-3.256-0.86-4.913c-0.418-3.244-3.521-5.117-6.804-4.257c-0.592,0.154-1.075,0.49-1.563-0.102
		c-2.06-2.501-5.127-1.969-7.726-2.761c-0.188,0.352-0.385,0.546-0.391,0.745c-0.025,1.104,1.207,2.395-0.168,3.266
		c-1.391,0.881-2.342-0.725-3.881-1.107c0.514,1.98-0.769,3.228-2.021,4.101c-2.143,1.494-2.869,3.752-3.803,5.891
		c-0.75,1.715-0.063,4.431,1.467,5.117c2.373,1.068,4.203,3.787,7.488,2.398c-0.201,2.325-1.369,4.032-1.607,6.069
		c-0.409,3.515,0.66,6.232,3.181,8.556c2.43,2.241,1.989,2.963,0.729,6.209c-1.326,3.407-2.942,4.383-6.551,3.973
		c-2.248-0.256-4.668,0.377-7.055-0.074c-1.353-0.256-1.765,0.767-1.113,1.748c0.568,0.861,0.356,2.459,2.131,2.428
		c0.945-0.018,0.721,0.964,0.334,1.298c-1.688,1.454-1.529,3.448-1.463,5.272c0.074,2.049-0.318,4.01-0.51,6.008
		c-1.578,1.345-3.615,2.015-5.031,3.65c-0.771,0.889-1.912,1.047-2.529-0.414c-0.483-1.146-1.242-2.002-2.395-2.519
		c-0.582-0.262-0.746-0.817-0.939-1.413c-0.885-2.744-0.912-2.767-3.852-2.88c-0.984-0.036-1.834-0.114-2.574-0.909
		c-2.158-2.316-5.113-2.461-7.945-2.459c-2.713,0.002-5.389,0.668-8.01,1.454c-2.072,0.623-2.92,2.765-4.918,3.81
		c-1.227-2.41-3.438-2.685-5.842-2.656c-1.213,0.012-2.06,0.082-2.053,1.627c0.006,1.854-1.433,2.072-2.669,1.654
		c-1.211-0.412-1.907-0.111-2.893,0.524c-1.535,0.994-3.264,0.253-3.363-1.51c-0.108-1.942-1.078-3.6-1.299-5.498
		c-0.229-2-1.602-2.813-3.473-2.246c-2.623,0.795-5.392,0.525-8.027,1.427c-1.94,0.661-4-1.058-4.033-3.082
		c-0.021-1.396-0.409-1.918-1.811-1.83c-0.275,0.016-0.594-0.683-0.893-1.049C759.629,444.998,759.125,445.018,758.643,445.898z"/>
	<path id="Gjakova" fill="#383535" stroke="#FFFFFF" stroke-width="2" d="M561.667,534.662c-1.017-0.213-1.875,0.156-2.675,0.736
		c-0.636,0.614-1.667,0.022-2.27,0.741c-0.267,0.384-0.759,0.767-0.764,1.152c-0.028,2.203-1.675,2.633-3.256,2.887
		c-1.741,0.279-3.143,0.884-3.963,2.56c-1.135-0.467-1.045-1.818-1.93-2.365c-0.243-0.152-0.438-0.352-0.589-0.598
		c-0.255-0.638-0.34-1.334-0.704-1.933c-0.291-0.448-0.625-0.867-0.953-1.272c-0.207-0.082-0.394-0.57-0.624-0.021
		c0.155,0.174,0.27,0.354,0.37,0.556c0.214,0.477,0.38,0.959,0.554,1.444c0.102,0.271,0.165,0.549,0.2,0.836
		c0.021,0.467-0.177,0.847-0.465,1.189c0.021,1.147-0.155,2.217,0.571,3.371c1.744,2.764,0.349,5.237-2.986,4.977
		c-2.581-0.205-3.979,0.648-4.804,2.91c-0.6,1.645-2.242,2.145-3.549,2.68c-2.194,0.9-4.244,2.043-6.361,3.07
		c-0.288,0.225-0.576,0.451-0.769,0.771l0.019-0.039c-0.747,0.554-0.147,1.564-0.74,2.171l0.015-0.023
		c-1.37,2.006-3.609,0.461-5.267,1.291c-0.384,0.338-0.873,0.529-1.241,0.889c-0.497,0.789-1.081,1.537-1.475,2.375
		c-0.795,1.695-1.989,2.834-3.833,3.308c-1.14,0.293-2.265,0.68-2.676,1.987c-0.56-2.317-1.487-4.317-3.809-5.475
		c-0.925-0.461-1.506-1.479-2.156-2.346c-1.148-1.531-2.512-2.843-4.544-3.203c-0.689-0.123-1.48-0.316-1.976-0.76
		c-1.529-1.365-3.277-1.537-5.222-1.552c-1.392-0.008-3.245,0.429-3.708-1.828c-0.133-0.646-0.911-0.62-1.501-0.709
		c-0.823-0.123-1.631-0.377-2.456-0.455c-3.612-0.344-5.864-2.122-6.578-5.805c-0.306-1.578-1.062-2.91-3.104-2.742
		c-0.363,0.029-0.755-0.52-1.162-0.752c-2.352-1.336-4.53-2.922-7.462-3.055c-2.12-0.094-3.63-2.227-5.867-2.086
		c0.121-5.912-4.232-10.291-9.572-9.941c-0.721,0.047-1.599-0.061-1.99,0.568c-1.563,2.52-4.948,2.73-6.49,5.176
		c-0.936,1.482-1.881,1.353-2.805,0.222c-1.082-1.326-2.897-1.605-3.905-3.058c-0.845-1.215-2.153-0.742-3.253-0.313
		c-2.904,1.139-5.967,1.563-8.993,2.172c-1.004,0.201-2.018,0.434-2.473-0.66c-0.514-1.232-1.398-1.293-2.518-1.506
		c-2.534-0.48-3.164-1.99-1.762-4.182c0.684-1.07,0.653-1.974,0.188-3.007c-0.739-1.637-1.591-3.223-2.877-4.487
		c-1.133-1.117-1.031-2.166,0.21-2.9c2.881-1.705,2.204-4.436,2.508-7.063c0.365-3.152-1.906-5.438-2.069-8.339
		c-0.041-0.721-0.646-1.186-1.156-1.717c-3.181-3.317-6.568-6.408-10.318-9.051c-1.403-0.99-1.343-1.494-0.646-3.051
		c0.863-1.929,1.575-3.517,3.647-4.451c2.962-1.336,3.868-4.287,2.071-6.916c-0.789-1.154-1.134-2.33-1.446-3.574
		c-0.448-1.795-0.96-3.457-3.033-4.037c-0.408-0.112-0.893-0.492-1.053-0.869c-1.132-2.67-3.528-4.09-5.622-5.803
		c-2.348-1.922-2.461-2.049-1.019-4.639c0.724-1.301,0.878-2.131-0.286-3.41c-1.255-1.379-2.286-2.904-3.74-4.188
		c-1.374-1.216-2.031-3.408-1.74-5.187c0.311-1.896-0.535-2.656-1.776-3.375c-2.759-1.596-4.009-3.863-3.713-7.094
		c0.134-1.459-0.667-2.392-1.998-3.392c-3.14-2.358-6.469-4.301-9.972-6c-0.854-0.414-1.735-0.793-2.636-1.09
		c-1.544-0.512-2.784-1.063-4.038-2.461c-1.537-1.715-4.205-2.504-6.495-3.418c-1.368-0.545-2.113-1.219-2.488-2.67
		c-0.443-1.709-1.059-3.441-2.751-4.443c-0.196-0.114-0.474-0.329-0.478-0.504c-0.057-2.625-2.01-3.813-3.797-5.17
		c-0.979-0.744-1.115-1.826-0.548-2.897c1.16-2.199,1.46-4.753,2.853-6.848c0.417-0.626,0.757-1.408,0.555-2.019
		c-0.905-2.737-0.312-5.782-2.262-8.369c-1.446-1.919-2.187-4.388-3.143-6.652c-0.548-1.298-0.918-2.573,0.007-4.032
		c0.52-0.818,0.504-2.078,0.459-3.129c-0.11-2.574,1.073-4.477,3.21-5.532c1.972-0.973,2.874-2.708,3.278-4.434
		c0.669-2.858,2.353-4.612,4.727-5.913c2.421-1.328,3.516-3.303,3.262-6.041c1.315-0.522,2.657-0.99,3.943-1.578
		c1.88-0.859,3.645-0.615,5.464,0.225c3.893,1.794,7.864,3.23,12.273,2.125c0.724-0.182,1.495-0.055,1.984,0.494
		c2.347,2.637,5.032,2.037,7.798,0.918c1.532,0.081,3.384-1.478,4.472,0.873c-1.726,1.665-2.635,3.635-2.332,6.086
		c0.103,0.828,0.017,1.637-0.227,2.465c-0.876,2.973-0.656,3.691,2.205,4.081c2.451,0.335,3.444,1.789,4.301,3.693
		c0.414,0.922,0.205,1.78,0.048,2.747c-0.292,1.81,1.124,3.388,2.969,3.713c2.921,0.514,5.86,0.938,8.759,1.557
		c1.431,0.305,2.779,0.539,4.202,0.047c0.431-0.148,1.104-0.261,1.396-0.037c2.278,1.74,5.413,1.432,7.628,3.207
		c0.848,0.678,1.734,1.222,2.672,1.744c1.33,0.74,2.364,2.158,4.02,2.12c1.676-0.038,1.604-2.071,2.875-2.833
		c1.958-1.176,3.692-2.725,5.903-3.484c0.656-0.814,0.639-1.631,0.006-2.448c0.062-1.015,0.301-1.946,1.519-2.048
		c1.132-0.094,1.188,0.967,1.58,1.651c0.528,0.927,1,1.894,1.604,2.77c0.378,0.55,0.873,1.306,1.709,0.854
		c1.625-0.875,2.366,0.362,3.314,1.223c1.653,1.499,2.43,3.77,4.656,4.745c-1.793,1.842-3.545,3.363-1.403,5.787
		c0.243,0.275-0.279,1.128-0.24,1.698c0.153,2.244,1.458,3.396,3.733,3.42c0.593,0.007,1.22,0.189,1.772,0.056
		c1.345-0.326,2.036,0.472,2.572,1.416c0.735,1.298-0.757,1.472-1.236,2.149c-0.555,0.788-2.017,0.745-1.789,2.314
		c0.209,1.439,0.359,2.437,1.906,3.361c4.041,2.414,7.608,2.459,11.456-0.408c2.431-1.811,5.342-2.69,8.379-3.455
		c2.3-0.578,4.013-0.563,5.919,0.556c0.75,0.44,1.678,0.586,2.419,0.217c1.689-0.838,3.268-0.361,4.832,0.195
		c2.194,0.778,4.276,1.01,6.524-0.015c3.968-1.807,8.146-0.403,12.229-0.481c0.667-0.015,1.272,0.518,1.289,1.037
		c0.044,1.409,1.563,1.688,1.923,2.879c0.467,1.541,1.603,1.834,3.129,1.28c1.22-0.44,2.234-0.452,2.44,1.429
		c0.147,1.35,1.748,1.352,2.82,1.707c1.113,0.368,2.413,0.45,2.304,2.118c-0.007,0.115,0.036,0.234,0.044,0.353
		c0.111,1.574,3.685-0.59,2.442,2.078c-0.902,1.936,1.65,2.119,1.271,3.555c1.651,0.23,0.928,2.479,2.426,2.863
		c0.179,0.045,0.455,0.414,0.427,0.459c-0.749,1.123,0.008,1.729,0.748,2.391c0.896,0.799,2.017,0.562,3.046,0.744
		c1.264,0.227,2.272-0.59,3.416-0.865c0.428-0.078,0.733-0.301,0.869-0.729l-0.038-0.012c0.313-0.185,0.624-0.189,0.933,0.01
		c0.197,0.319,0.163,0.615-0.103,0.883c-0.193,0.223-0.388,0.443-0.581,0.666c-0.736,0.719-0.731,1.43,0.023,2.131
		c0.196,0.193,0.393,0.389,0.588,0.584c0.367,0.838,0.41,1.871,1.411,2.324c0.542,0.252,0.716,0.715,0.732,1.27
		c0.604,0.943-0.064,2.568,1.582,2.955c0.172-0.021,0.342-0.01,0.511,0.031c0.935,0.646,2.387,0.189,3.046,1.426
		c0.526,0.035,0.979,0.205,1.263,0.687c0.255,0.254,0.483,0.535,0.771,0.756l-0.03-0.029c0.219,0.285,0.5,0.512,0.749,0.771
		c1.212,1.733,2.382,3.491,4.629,4.09c0.537,0.143,1.021,0.582,1.464,0.961c2.292,1.955,2.194,1.852,4.402,0.07
		c1.809-1.459,3.948-1.07,6.018-0.388c1.407,0.463,2.246,1.711,3.465,2.431c0.99,0.475,1.967,0.646,2.897-0.14
		c1.083-1.598,3.455-2.008,3.822-4.344c0.117-0.744,1.177-0.67,1.839-0.434c0.987,0.354,1.924,0.844,2.883,1.274
		c1.961,0.967,0.48,3.113,1.509,4.4c0.031,0.166,0.036,0.334,0.013,0.502c0.708,1.717-0.415,4.192,2.134,5.147l-0.027-0.014
		c0.527,1.672,0.578,3.342-0.026,5.008l0.026,0.006c-0.239,0.255-0.501,0.484-0.703,0.773l0.021-0.043
		c-0.302,0.238-0.547,0.527-0.746,0.855c-0.233,0.405-0.467,0.811-0.701,1.217c-0.591,1.004-0.592,2.01-0.005,3.016
		c0.053,0.146,0.064,0.295,0.031,0.449c0.138,0.379,0.393,0.668,0.708,0.908l-0.035-0.027c1.353,0.508,0.669,2.137,1.587,2.883
		c1.611,1.433,3.221,2.861,4.832,4.293c0.278,0.269,0.547,0.549,0.924,0.685c0.154-0.033,0.307-0.029,0.459,0.01
		c0.841,0.858,2.127-0.023,2.987,0.764c0.224,0.205,0.447,0.412,0.67,0.619c0.391,0.512,0.408,1.023-0.005,1.533l0.018-0.017
		c-1.616,1.209-1.109,3.541-2.557,4.839c-0.129,1.006-1.027,1.942-0.277,3.03l-0.025-0.041c0.789,0.89,2.044,0,2.869,0.754
		l-0.026-0.024c0.722,0.596,1.441,0.574,2.162-0.006c0.313-0.484,0.789-0.646,1.333-0.679c1.214-0.694,2.19-0.36,3.001,0.693
		l-0.013-0.014c0.357,0.461,0.254,1.135,0.717,1.547c0.12,1.17-0.767,2.322-0.063,3.504c0.755,1.195,1.732,1.459,2.953,0.705
		c0.582-0.381,1.13-0.83,1.753-1.125c0.771-0.363,1.657-0.443,2.221,0.313c0.495,0.664,0.006,1.291-0.414,1.875
		c-0.814,1.138-1.582,2.308-1.451,3.81c0.477,1.055,0.479,2.108-0.003,3.164c0.003,0.612,0.007,1.225,0.01,1.838
		c0.49,2.965,0.507,5.932-0.005,8.897c-0.006,0.404-0.012,0.81-0.018,1.216c-0.268,0.282-0.511,0.586-0.721,0.915
		c-0.553,0.974-0.581,1.902-0.288,3.044c0.64,2.491-0.53,4.754-2.726,5.868c-4.032,2.05-4.481,2.857-4.109,7.377
		c0.02,0.236-0.005,0.476-0.009,0.714c-1.221,1.801,0.718,1.627,1.4,2.237c1.35,1.252,0.328,2.033-0.563,2.84
		c-0.633,0.345-0.493,1.093-0.829,1.591c0.021,0.168,0.007,0.334-0.04,0.496c-0.432,0.413-0.317,1.077-0.697,1.516l0.016-0.021
		c-0.432,0.384-1.138,0.281-1.471,0.837c-0.096,1.016-0.653,1.715-1.606,2.383c-0.785-1.545-2.094-2.435-3.449-3.277
		c-1.109-0.691-1.99-1.678-0.87-2.842c1.067-1.111-0.562-2.658,0.849-3.539c0.856-1.209,0.503-2.143-0.66-2.889l-0.009,0.043
		c-0.375-0.433-0.27-1.142-0.844-1.457c-1.125-1.199-2.998-0.219-4.124-1.414c-0.429-0.328-0.548-1.412-1.448-0.594
		c-0.198,0.192-0.397,0.387-0.597,0.58c-0.327,0.198-0.625,0.438-0.902,0.702c-0.723,0.599-1.445,1.193-2.167,1.791
		c-0.268,0.224-0.795,0.505-0.761,0.666c0.827,3.972-2.877,4.978-4.673,7.22c-0.073,0.092-0.122,0.2-0.183,0.301
		c-0.396,0.623-0.934,1.115-1.475,1.604c-0.208,0.193-0.417,0.386-0.626,0.578c-0.778,0.543-0.173,1.588-0.796,2.188l0.018-0.027
		c-0.765,0.496-1.53,0.463-2.298,0.01c-2.798,1.582-3.592,3.457-3.098,7.324c-0.824,0.07-1.178-0.725-1.82-0.983
		c-1.172-0.656-2.575,0.122-3.735-0.604c-0.986-1.104-2.602-1.436-3.398-2.771c-0.268-0.356-0.342-0.766-0.316-1.196
		c0.088-0.592,1.063-1.066,0.233-1.779c-0.738-0.469-1.307-1.055-1.367-1.99C562.271,535.178,561.987,534.904,561.667,534.662z"/>
</g>
</svg>
